<?xml version="1.0" encoding="utf-8" standalone="no"?>
<!DOCTYPE svg PUBLIC "-//W3C//DTD SVG 1.1//EN"
  "http://www.w3.org/Graphics/SVG/1.1/DTD/svg11.dtd">
<!-- Created with matplotlib (http://matplotlib.org/) -->
<svg height="420pt" version="1.1" viewBox="0 0 860 420" width="860pt" xmlns="http://www.w3.org/2000/svg" xmlns:xlink="http://www.w3.org/1999/xlink">
 <defs>
  <style type="text/css">
*{stroke-linecap:butt;stroke-linejoin:round;stroke-miterlimit:100000;}
  </style>
 </defs>
 <g id="figure_1">
  <g id="patch_1">
   <path d="M 0 420.350625 
L 860.454375 420.350625 
L 860.454375 0 
L 0 0 
z
" style="fill:#ffffff;"/>
  </g>
  <g id="axes_1">
   <g id="patch_2">
    <path d="M 47.974375 397.536875 
L 853.254375 397.536875 
L 853.254375 13.006875 
L 47.974375 13.006875 
z
" style="fill:#ffffff;"/>
   </g>
   <g id="line2d_1">
    <path clip-path="url(#pa409ee2ded)" d="M 47.974375 104.292851 
L 48.56418 130.667094 
L 49.153984 171.093908 
L 51.12 323.266539 
L 51.513203 337.583147 
L 51.709805 340.575552 
L 51.906406 340.9276 
L 52.103008 338.463266 
L 52.496211 323.941297 
L 52.889414 298.036452 
L 53.479219 242.031525 
L 54.85543 100.977735 
L 55.248633 76.481081 
L 55.641836 63.249953 
L 55.838438 60.697607 
L 56.035039 61.020318 
L 56.231641 63.602001 
L 56.624844 75.278251 
L 57.214648 102.708636 
L 58.197656 150.029719 
L 58.787461 167.602768 
L 59.180664 173.206194 
L 59.377266 174.585048 
L 59.770469 175.054445 
L 60.163672 174.790409 
L 60.556875 176.139925 
L 60.753477 177.577454 
L 61.343281 186.525333 
L 62.719492 214.659814 
L 63.112695 217.622883 
L 63.309297 217.505534 
L 63.505898 215.891982 
L 63.899102 208.586991 
L 64.488906 187.552139 
L 65.865117 128.789506 
L 66.25832 121.631202 
L 66.454922 121.191142 
L 66.651523 122.951381 
L 67.044727 132.544682 
L 67.634531 159.740369 
L 68.814141 222.287515 
L 69.403945 244.026463 
L 69.99375 258.929816 
L 71.763164 296.041515 
L 72.54957 324.117321 
L 73.532578 362.021127 
L 73.925781 371.350391 
L 74.122383 373.315991 
L 74.318984 373.697376 
L 74.515586 372.523884 
L 74.712187 369.326117 
L 75.105391 357.473843 
L 75.695195 326.845691 
L 76.678203 254.705244 
L 78.054414 153.72622 
L 78.84082 114.2382 
L 79.430625 95.550333 
L 79.823828 87.922632 
L 80.217031 85.282274 
L 80.413633 85.076913 
L 80.806836 89.976244 
L 81.200039 101.535144 
L 81.593242 119.870963 
L 82.183047 160.26844 
L 84.149063 317.985823 
L 84.542266 334.532066 
L 84.935469 340.48754 
L 85.13207 339.783445 
L 85.328672 335.646884 
L 85.721875 319.716724 
L 86.31168 274.977325 
L 88.081094 103.706105 
L 88.474297 83.551373 
L 88.8675 74.662167 
L 89.064102 73.958072 
L 89.260703 75.3956 
L 89.653906 83.668722 
L 90.243711 105.61303 
L 91.42332 151.291223 
L 92.013125 163.290183 
L 92.406328 166.898672 
L 92.799531 168.101502 
L 93.192734 168.805598 
L 93.585938 171.005896 
L 93.782539 172.736797 
L 94.372344 182.447447 
L 95.551953 208.70434 
L 95.945156 213.104937 
L 96.141758 213.955719 
L 96.338359 213.163612 
L 96.731563 207.530848 
L 97.124766 196.529356 
L 97.71457 172.414087 
L 98.89418 122.481984 
L 99.287383 115.206331 
L 99.483984 114.384886 
L 99.680586 115.822414 
L 99.877188 118.785483 
L 100.270391 130.843118 
L 100.663594 147.858758 
L 102.039805 215.217223 
L 102.826211 241.620803 
L 104.00582 271.368836 
L 104.792227 292.755736 
L 105.382031 312.793119 
L 106.561641 357.767216 
L 106.954844 368.09395 
L 107.151445 371.057018 
L 107.348047 372.230511 
L 107.544648 372.054487 
L 107.74125 369.384792 
L 108.134453 358.735348 
L 108.724258 330.278156 
L 109.510664 277.559009 
L 111.47668 139.526962 
L 112.066484 111.157782 
L 112.459688 97.310571 
L 112.852891 87.570584 
L 113.246094 82.759265 
L 113.442695 81.556435 
L 113.639297 82.641916 
L 113.835898 84.519504 
L 114.229102 94.171479 
L 114.622305 110.776397 
L 115.212109 148.738877 
L 116.195117 234.081114 
L 116.981523 297.860428 
L 117.571328 329.515386 
L 117.964531 338.463266 
L 118.161133 338.932663 
L 118.357734 336.438992 
L 118.750938 322.591781 
L 119.144141 296.74561 
L 119.733945 241.151406 
L 121.110156 106.258451 
L 121.503359 84.431492 
L 121.896563 73.987409 
L 122.093164 72.403194 
L 122.289766 73.341988 
L 122.486367 75.923672 
L 122.87957 85.781008 
L 123.665977 117.142593 
L 124.452383 146.333218 
L 125.042188 160.767175 
L 125.435391 165.72518 
L 125.828594 167.25072 
L 126.025195 167.133371 
L 126.221797 167.280058 
L 126.418398 167.749454 
L 126.811602 170.272463 
L 127.401406 180.393835 
L 128.777617 214.307767 
L 129.17082 217.769569 
L 129.367422 217.505534 
L 129.564023 215.481259 
L 129.957227 207.472173 
L 130.547031 185.703889 
L 131.923242 123.596802 
L 132.316445 114.648922 
L 132.513047 113.446092 
L 132.709648 114.032838 
L 132.90625 116.614522 
L 133.299453 127.7627 
L 133.889258 154.224954 
L 135.265469 218.620351 
L 135.855273 237.425568 
L 138.017891 297.94844 
L 139.1975 345.826931 
L 139.787305 368.09395 
L 140.180508 377.305865 
L 140.377109 378.860743 
L 140.573711 379.33014 
L 140.770313 376.983155 
L 141.163516 367.389854 
L 141.556719 350.814274 
L 142.146523 316.430946 
L 143.719336 204.157057 
L 144.702344 142.225994 
L 145.48875 109.280194 
L 146.078555 94.288828 
L 146.471758 89.242811 
L 146.668359 89.184136 
L 146.864961 90.005581 
L 147.061563 92.381903 
L 147.454766 103.207371 
L 147.847969 122.071262 
L 148.437773 162.791449 
L 150.600391 332.361105 
L 150.993594 343.802657 
L 151.190195 345.62157 
L 151.386797 344.037355 
L 151.583398 339.548746 
L 151.976602 320.802205 
L 152.566406 271.486185 
L 154.139219 113.504767 
L 154.532422 91.560458 
L 154.925625 79.913546 
L 155.122227 77.80126 
L 155.318828 77.507887 
L 155.51543 79.590836 
L 155.908633 87.922632 
L 156.498438 108.517424 
L 157.481445 146.74394 
L 158.07125 160.649825 
L 158.464453 165.021085 
L 159.250859 167.720117 
L 159.447461 168.89361 
L 159.840664 173.294206 
L 160.430469 186.818707 
L 161.610078 221.055348 
L 162.003281 226.6001 
L 162.199883 227.392207 
L 162.396484 226.92281 
L 162.789688 220.967336 
L 163.182891 208.82169 
L 163.772695 182.271423 
L 164.952305 126.735894 
L 165.345508 117.465304 
L 165.542109 115.851752 
L 165.738711 116.643859 
L 165.935313 118.990844 
L 166.328516 129.904324 
L 166.721719 145.599785 
L 168.09793 209.379099 
L 169.277539 247.810976 
L 170.65375 284.453277 
L 171.243555 305.048069 
L 173.20957 379.594176 
L 173.406172 381.383752 
L 173.602773 381.794474 
L 173.799375 379.711525 
L 174.192578 370.440935 
L 174.782383 344.829462 
L 175.568789 296.980309 
L 177.928008 139.790997 
L 178.714414 104.52755 
L 179.107617 92.323228 
L 179.50082 84.519504 
L 179.697422 83.316674 
L 179.894023 83.052638 
L 180.090625 84.695528 
L 180.483828 93.848769 
L 180.877031 110.571036 
L 181.466836 148.386829 
L 182.449844 232.408887 
L 183.23625 295.454768 
L 183.826055 326.405631 
L 184.219258 334.326705 
L 184.415859 333.329237 
L 184.612461 329.544724 
L 185.005664 312.587758 
L 185.398867 284.893336 
L 186.381875 187.992199 
L 187.168281 119.108193 
L 187.561484 96.547801 
L 187.954688 83.434023 
L 188.151289 80.177582 
L 188.347891 79.033427 
L 188.544492 79.64951 
L 188.937695 85.604984 
L 189.5275 103.207371 
L 190.510508 135.06769 
L 191.100313 147.06665 
L 191.493516 151.525922 
L 192.279922 156.073205 
L 192.673125 160.297778 
L 193.066328 167.896141 
L 193.656133 185.263829 
L 194.639141 213.809032 
L 195.032344 219.647157 
L 195.228945 220.644626 
L 195.425547 220.028542 
L 195.81875 213.486322 
L 196.211953 200.871278 
L 196.998359 164.669037 
L 197.784766 127.674688 
L 198.177969 116.233137 
L 198.571172 111.451155 
L 198.767773 112.243262 
L 198.964375 114.2382 
L 199.357578 124.154211 
L 199.750781 138.822866 
L 201.716797 223.10896 
L 204.272617 301.938314 
L 205.255625 343.127898 
L 205.84543 364.896183 
L 206.238633 373.844063 
L 206.435234 375.604301 
L 206.631836 376.308397 
L 206.828438 374.694845 
L 207.221641 366.89112 
L 207.811445 344.565427 
L 208.597852 300.99952 
L 210.170664 195.238515 
L 211.350273 122.393972 
L 212.13668 89.80022 
L 212.529883 79.708185 
L 212.726484 77.126501 
L 212.923086 76.15837 
L 213.119688 76.305057 
L 213.512891 83.14065 
L 213.906094 97.662619 
L 214.299297 119.342892 
L 215.085703 181.772689 
L 216.461914 297.684404 
L 216.855117 317.633775 
L 217.24832 327.637798 
L 217.444922 328.253882 
L 217.641523 325.613524 
L 217.838125 320.42082 
L 218.231328 300.471449 
L 218.821133 254.353196 
L 220.393945 120.663071 
L 220.787148 102.385926 
L 221.180352 92.381903 
L 221.376953 90.416303 
L 221.573555 90.269617 
L 221.770156 91.64847 
L 222.163359 98.249365 
L 222.753164 113.827477 
L 223.736172 140.113708 
L 224.129375 147.095988 
L 224.71918 153.520859 
L 225.308984 158.948261 
L 225.898789 168.77626 
L 226.488594 184.677083 
L 227.668203 221.055348 
L 228.061406 226.805461 
L 228.258008 227.714918 
L 228.454609 227.128172 
L 228.847813 220.761975 
L 229.241016 208.234943 
L 230.027422 172.091376 
L 230.813828 135.859798 
L 231.207031 123.450115 
L 231.600234 117.113256 
L 231.796836 116.731871 
L 231.993438 117.876026 
L 232.190039 120.751083 
L 232.583242 131.136491 
L 233.173047 154.899712 
L 234.156055 197.614837 
L 235.335664 236.838821 
L 236.515273 270.987451 
L 237.498281 307.101681 
L 238.874492 362.666547 
L 239.267695 372.34786 
L 239.660898 376.191048 
L 239.8575 375.340266 
L 240.250703 369.502141 
L 240.643906 357.796554 
L 241.233711 331.774359 
L 242.020117 286.389539 
L 244.969141 103.559418 
L 245.558945 85.927695 
L 245.952148 81.497761 
L 246.14875 80.940352 
L 246.541953 86.250405 
L 246.935156 99.100147 
L 247.328359 119.372229 
L 247.918164 163.290183 
L 249.687578 313.291853 
L 250.080781 330.102132 
L 250.277383 334.854777 
L 250.473984 336.438992 
L 250.670586 335.382848 
L 250.867188 331.65701 
L 251.260391 315.28679 
L 251.653594 289.029897 
L 252.636602 200.460556 
L 253.423008 137.561362 
L 254.012813 109.632242 
L 254.406016 101.505807 
L 254.602617 100.244302 
L 254.799219 100.479001 
L 254.99582 102.12189 
L 255.389023 108.810797 
L 255.978828 122.980718 
L 256.961836 144.660991 
L 257.551641 151.965981 
L 258.141445 156.89465 
L 258.338047 158.684225 
L 258.927852 168.45355 
L 259.517656 184.031662 
L 260.697266 223.54902 
L 261.090469 229.973891 
L 261.28707 230.765998 
L 261.483672 230.355276 
L 261.876875 224.19444 
L 262.270078 212.518191 
L 262.859883 186.789369 
L 264.039492 133.278114 
L 264.432695 122.74602 
L 264.825898 118.433435 
L 265.0225 118.521447 
L 265.219102 120.45771 
L 265.612305 128.877518 
L 266.202109 149.589659 
L 267.57832 204.098383 
L 268.364727 227.509557 
L 269.347734 255.438676 
L 270.527344 298.505849 
L 272.100156 362.226488 
L 272.493359 369.9422 
L 272.689961 371.995812 
L 272.886563 372.201173 
L 273.083164 370.675633 
L 273.279766 368.152625 
L 273.672969 358.06059 
L 274.066172 343.831994 
L 274.852578 305.106744 
L 276.032188 232.555574 
L 277.408398 143.810209 
L 278.194805 105.231645 
L 278.784609 87.07185 
L 279.177813 81.057701 
L 279.374414 80.911015 
L 279.571016 82.436555 
L 279.767617 85.898357 
L 280.16082 100.244302 
L 280.554023 123.391441 
L 281.143828 171.240594 
L 282.716641 308.773907 
L 283.109844 327.72581 
L 283.503047 335.822908 
L 283.699648 335.500198 
L 283.89625 332.449117 
L 284.289453 317.25239 
L 284.682656 292.110315 
L 285.469063 223.167635 
L 286.45207 141.345875 
L 287.041875 111.627179 
L 287.435078 101.271108 
L 287.63168 98.689425 
L 287.828281 97.838643 
L 288.024883 98.102679 
L 288.418086 101.711168 
L 289.007891 110.805734 
L 289.990898 127.32264 
L 290.580703 132.838055 
L 290.973906 135.771786 
L 291.367109 139.497624 
L 291.956914 149.853695 
L 292.546719 167.602768 
L 293.726328 209.408436 
L 294.119531 216.918787 
L 294.316133 218.297641 
L 294.512734 218.356316 
L 294.905937 212.899576 
L 295.299141 201.898084 
L 295.888945 177.870827 
L 297.265156 119.606927 
L 297.658359 111.275131 
L 297.854961 109.54423 
L 298.051563 109.368206 
L 298.248164 110.688385 
L 298.641367 118.228074 
L 299.231172 137.737386 
L 300.607383 188.050874 
L 302.966602 262.684992 
L 305.522422 365.482929 
L 305.719023 368.680696 
L 305.915625 369.883526 
L 306.112227 369.736839 
L 306.308828 368.798045 
L 306.702031 362.431849 
L 307.095234 351.811742 
L 307.685039 328.693941 
L 308.668047 277.294973 
L 311.420469 111.920552 
L 311.813672 98.249365 
L 312.206875 89.80022 
L 312.403477 88.773414 
L 312.600078 89.330823 
L 312.79668 92.205879 
L 313.189883 105.29032 
L 313.583086 127.410652 
L 314.172891 174.056976 
L 315.745703 311.15023 
L 316.138906 331.21695 
L 316.532109 340.898263 
L 316.728711 341.308985 
L 316.925313 339.167361 
L 317.318516 325.906897 
L 317.711719 302.818433 
L 318.301523 254.470545 
L 319.481133 155.603808 
L 320.070938 125.298366 
L 320.464141 114.032838 
L 320.857344 108.605436 
L 321.053945 107.490618 
L 321.250547 107.490618 
L 321.447148 108.077364 
L 321.64375 109.280194 
L 323.216563 123.714151 
L 323.806367 128.114748 
L 324.396172 135.06769 
L 324.789375 142.871415 
L 325.182578 154.16628 
L 325.968984 185.879913 
L 326.755391 215.68662 
L 327.148594 223.813055 
L 327.345195 225.661306 
L 327.541797 226.101366 
L 327.738398 224.605163 
L 328.131602 217.21216 
L 328.721406 196.323995 
L 330.294219 128.144085 
L 330.687422 118.961507 
L 330.884023 116.497173 
L 331.080625 115.675728 
L 331.277227 116.233137 
L 331.67043 122.012587 
L 332.260234 138.734854 
L 333.833047 191.24864 
L 335.012656 226.130703 
L 335.995664 259.86861 
L 338.354883 351.899754 
L 338.748086 359.087395 
L 338.944688 360.759622 
L 339.141289 361.082333 
L 339.337891 360.994321 
L 339.731094 356.329688 
L 340.124297 348.056567 
L 340.714102 329.3687 
L 341.500508 294.01724 
L 342.483516 236.604123 
L 344.25293 126.735894 
L 344.842734 100.332314 
L 345.235938 89.506847 
L 345.432539 87.423898 
L 345.629141 86.837151 
L 345.825742 88.59739 
L 346.218945 99.39352 
L 346.612148 119.782951 
L 347.201953 165.461144 
L 348.774766 300.178075 
L 349.167969 320.655518 
L 349.561172 331.686347 
L 349.757773 333.094538 
L 349.954375 331.803696 
L 350.150977 327.491112 
L 350.54418 311.766313 
L 351.133984 272.923714 
L 352.510195 165.255783 
L 353.1 135.683774 
L 353.493203 123.772826 
L 353.886406 116.52651 
L 354.279609 112.947358 
L 354.672813 111.979227 
L 355.65582 114.766271 
L 355.852422 115.294343 
L 356.83543 120.311023 
L 357.228633 124.828969 
L 357.621836 132.163297 
L 358.015039 143.194125 
L 358.801445 175.230469 
L 359.784453 215.187886 
L 360.177656 224.399802 
L 360.374258 226.717449 
L 360.570859 227.36287 
L 360.767461 226.248052 
L 361.160664 219.764507 
L 361.750469 200.95929 
L 363.519883 130.139022 
L 363.913086 123.039393 
L 364.109688 121.367166 
L 364.306289 121.337829 
L 364.502891 122.863369 
L 364.896094 129.170891 
L 365.6825 151.819295 
L 368.828125 250.656695 
L 371.383945 345.152173 
L 371.777148 353.102584 
L 372.170352 356.388363 
L 372.366953 357.004446 
L 372.760156 353.865354 
L 373.153359 347.381808 
L 373.743164 331.187613 
L 374.52957 299.15127 
L 375.315977 256.729518 
L 377.871797 105.759717 
L 378.265 92.645939 
L 378.658203 87.101187 
L 378.854805 87.335886 
L 379.051406 90.181605 
L 379.444609 102.737974 
L 380.034414 139.673648 
L 381.214023 244.847907 
L 382.00043 303.991926 
L 382.393633 322.445094 
L 382.786836 330.747553 
L 382.983438 331.363637 
L 383.180039 328.48858 
L 383.573242 316.225584 
L 384.163047 282.047617 
L 385.932461 158.478864 
L 386.522266 136.945278 
L 386.915469 128.584145 
L 387.308672 123.596802 
L 387.701875 120.399035 
L 388.29168 117.142593 
L 389.274688 114.12085 
L 389.471289 113.915489 
L 389.864492 115.00097 
L 390.257695 118.433435 
L 390.650898 124.975655 
L 391.044102 135.390401 
L 391.633906 157.862781 
L 392.813516 208.146931 
L 393.206719 218.620351 
L 393.599922 223.050285 
L 393.796523 222.639563 
L 393.993125 220.791312 
L 394.189727 217.798907 
L 394.779531 200.988628 
L 396.745547 127.351978 
L 397.13875 122.188611 
L 397.335352 121.279154 
L 397.531953 122.276623 
L 397.728555 123.890175 
L 398.121758 131.25384 
L 398.711563 146.861289 
L 401.463984 223.138297 
L 402.643594 268.259081 
L 404.216406 328.400568 
L 404.806211 342.365128 
L 405.199414 346.619038 
L 405.396016 347.763194 
L 405.592617 347.528495 
L 405.98582 344.653439 
L 406.379023 337.788508 
L 406.772227 328.136533 
L 407.362031 308.42186 
L 408.148438 272.659678 
L 409.328047 201.370013 
L 410.704258 116.790546 
L 411.294063 91.853831 
L 411.687266 84.138119 
L 411.883867 83.111313 
L 412.080469 85.047575 
L 412.27707 88.832088 
L 412.670273 104.468875 
L 413.063477 129.112216 
L 413.849883 197.937547 
L 415.029492 298.27115 
L 415.619297 326.170933 
L 416.0125 332.566467 
L 416.209102 331.363637 
L 416.405703 328.019183 
L 416.798906 313.8786 
L 417.388711 278.292442 
L 418.764922 181.537991 
L 419.354727 154.841038 
L 419.944531 139.556299 
L 420.534336 131.811249 
L 421.910547 119.078856 
L 422.500352 115.822414 
L 422.696953 115.675728 
L 422.893555 115.382355 
L 423.090156 116.145125 
L 423.483359 119.753614 
L 423.876563 127.469327 
L 424.269766 139.174914 
L 425.056172 171.651317 
L 426.03918 210.435242 
L 426.432383 218.591014 
L 426.628984 220.321915 
L 426.825586 220.439265 
L 427.022188 219.089748 
L 427.415391 212.254155 
L 428.005195 194.241046 
L 429.774609 132.515344 
L 430.167813 127.586676 
L 430.364414 126.941255 
L 430.561016 127.674688 
L 430.757617 129.200228 
L 431.15082 135.683774 
L 431.740625 149.354961 
L 434.493047 218.972399 
L 436.065859 277.823045 
L 437.638672 334.180019 
L 438.031875 342.775851 
L 438.425078 347.880543 
L 438.62168 348.525964 
L 438.818281 348.437952 
L 439.014883 347.704519 
L 439.408086 343.069224 
L 439.801289 335.881583 
L 440.391094 320.684856 
L 441.1775 291.112846 
L 441.963906 248.720432 
L 443.340117 159.799043 
L 444.126523 114.88362 
L 444.519727 99.452195 
L 444.91293 91.589796 
L 445.109531 91.619133 
L 445.306133 93.584733 
L 445.502734 98.220028 
L 445.895938 115.529041 
L 446.485742 158.478864 
L 448.255156 305.576141 
L 448.648359 323.002503 
L 449.041563 330.747553 
L 449.238164 330.366168 
L 449.434766 327.931171 
L 449.827969 315.345465 
L 450.417773 281.930268 
L 451.990586 180.657871 
L 452.580391 159.006936 
L 453.170195 144.719666 
L 454.153203 126.853243 
L 455.332813 108.224051 
L 455.726016 104.791586 
L 455.922617 103.882129 
L 456.119219 103.676768 
L 456.31582 104.703574 
L 456.512422 106.434475 
L 456.905625 113.79814 
L 457.298828 125.503727 
L 457.888633 150.704477 
L 459.068242 204.186395 
L 459.461445 213.985056 
L 459.658047 216.860113 
L 459.854648 217.593546 
L 460.05125 217.300172 
L 460.247852 215.481259 
L 460.641055 208.000245 
L 461.230859 190.133823 
L 462.60707 142.372681 
L 463.000273 134.275583 
L 463.393477 130.637756 
L 463.590078 131.048479 
L 463.78668 132.075285 
L 464.179883 137.385338 
L 464.769688 148.386829 
L 466.735703 187.581477 
L 467.325508 204.010371 
L 468.505117 246.402785 
L 471.060938 336.409654 
L 471.454141 342.071755 
L 471.650742 343.33326 
L 471.847344 343.831994 
L 472.043945 343.920006 
L 472.240547 343.127898 
L 472.830352 336.849714 
L 473.223555 330.190144 
L 473.813359 315.462814 
L 474.403164 293.489169 
L 474.992969 263.4771 
L 475.975977 199.87381 
L 477.155586 122.775357 
L 477.548789 104.468875 
L 477.941992 93.262022 
L 478.138594 91.531121 
L 478.335195 92.176542 
L 478.531797 95.550333 
L 478.925 110.717722 
L 479.514805 149.971044 
L 481.48082 306.720296 
L 481.874023 321.124915 
L 482.070625 324.909428 
L 482.267227 325.76021 
L 482.463828 323.999972 
L 482.66043 320.215459 
L 483.053633 305.018732 
L 483.643438 271.075463 
L 485.019648 189.195029 
L 485.609453 167.192046 
L 486.395859 146.479904 
L 488.165273 106.287788 
L 488.558477 99.921592 
L 488.95168 96.371777 
L 489.148281 95.726357 
L 489.541484 98.161353 
L 489.934688 105.671705 
L 490.327891 118.228074 
L 490.917695 145.2184 
L 492.097305 202.132783 
L 492.490508 212.987588 
L 492.687109 216.361378 
L 492.883711 217.798907 
L 493.080313 217.974931 
L 493.276914 216.56674 
L 493.670117 209.731146 
L 494.06332 198.67098 
L 496.029336 134.275583 
L 496.422539 129.698962 
L 496.619141 129.258903 
L 496.815742 129.698962 
L 497.012344 131.019141 
L 497.602148 139.116239 
L 499.568164 176.051913 
L 500.157969 191.512676 
L 501.140977 225.162572 
L 503.696797 319.188653 
L 504.09 328.664604 
L 504.483203 334.70809 
L 504.876406 337.025738 
L 505.073008 337.671159 
L 505.466211 336.23363 
L 505.859414 333.270562 
L 506.449219 324.99744 
L 506.842422 316.548295 
L 507.235625 304.784033 
L 507.82543 279.641958 
L 508.611836 232.760935 
L 510.577852 102.796648 
L 510.971055 89.712208 
L 511.167656 86.925163 
L 511.364258 86.543778 
L 511.560859 88.568053 
L 511.954063 101.505807 
L 512.347266 124.300897 
L 513.133672 188.549608 
L 514.313281 284.013217 
L 514.706484 304.519997 
L 515.099688 316.313596 
L 515.296289 318.572569 
L 515.492891 318.308533 
L 515.689492 316.254922 
L 516.082695 305.048069 
L 516.475898 288.003091 
L 518.441914 193.566288 
L 519.424922 166.194577 
L 520.604531 131.605888 
L 521.390938 110.952421 
L 521.784141 104.234177 
L 522.177344 100.508338 
L 522.373945 100.390989 
L 522.570547 101.300446 
L 522.96375 107.461281 
L 523.356953 118.580122 
L 523.946758 143.076776 
L 525.126367 198.113571 
L 525.51957 209.731146 
L 525.912773 215.569271 
L 526.109375 216.156017 
L 526.305977 215.275898 
L 526.69918 209.496448 
L 527.288984 194.182372 
L 529.058398 141.433887 
L 529.451602 135.889135 
L 529.648203 134.715643 
L 529.844805 134.451607 
L 530.041406 134.715643 
L 530.631211 139.849672 
L 531.614219 153.72622 
L 532.400625 167.808129 
L 533.187031 187.493465 
L 533.973438 212.576865 
L 536.922461 317.105704 
L 537.512266 329.222013 
L 537.905469 333.681284 
L 538.10207 335.676221 
L 538.691875 336.732365 
L 538.888477 336.23363 
L 539.28168 334.209356 
L 539.674883 329.720747 
L 540.068086 322.415757 
L 540.461289 310.915531 
L 541.051094 284.893336 
L 541.8375 235.988039 
L 543.803516 101.476469 
L 544.196719 89.506847 
L 544.39332 86.837151 
L 544.589922 87.218536 
L 544.786523 90.298954 
L 545.179727 104.762248 
L 545.769531 144.45563 
L 547.538945 288.208453 
L 547.932148 306.573609 
L 548.325352 316.430946 
L 548.521953 318.044498 
L 548.718555 317.604438 
L 548.915156 315.081429 
L 549.308359 304.608009 
L 550.094766 270.01932 
L 551.077773 226.688112 
L 551.86418 201.546037 
L 553.240391 158.478864 
L 554.42 119.25488 
L 555.009805 106.933209 
L 555.206406 104.52755 
L 555.403008 103.588756 
L 555.599609 103.295383 
L 555.796211 104.52755 
L 556.189414 110.805734 
L 556.582617 122.540659 
L 557.172422 147.330686 
L 558.352031 198.201583 
L 558.745234 207.648197 
L 559.138438 211.198012 
L 559.335039 211.198012 
L 559.531641 209.760484 
L 559.924844 203.951696 
L 560.514648 189.195029 
L 561.890859 150.99785 
L 562.480664 142.020633 
L 562.873867 140.055033 
L 563.070469 140.055033 
L 563.463672 142.108645 
L 564.053477 147.917432 
L 565.429688 165.813192 
L 566.019492 177.284081 
L 567.0025 205.037177 
L 568.378711 252.945005 
L 569.951523 307.893788 
L 570.541328 321.066241 
L 571.131133 328.664604 
L 571.720938 332.126407 
L 572.310742 333.270562 
L 572.507344 332.918514 
L 572.900547 330.424843 
L 573.29375 324.469369 
L 573.686953 313.937274 
L 574.276758 288.003091 
L 574.866563 251.272778 
L 577.02918 98.718762 
L 577.422383 88.039981 
L 577.618984 86.397092 
L 577.815586 88.421366 
L 578.012188 92.792625 
L 578.405391 110.101639 
L 578.995195 152.053993 
L 580.568008 279.143224 
L 580.961211 298.359162 
L 581.354414 309.301979 
L 581.551016 311.384928 
L 581.747617 311.590289 
L 581.944219 309.448666 
L 582.337422 300.647472 
L 582.927227 277.881719 
L 584.106836 228.242989 
L 584.893242 204.069045 
L 585.679648 180.745883 
L 586.662656 143.340812 
L 587.645664 107.490618 
L 588.235469 94.230154 
L 588.628672 91.149736 
L 588.825273 91.853831 
L 589.021875 93.61407 
L 589.415078 101.593819 
L 590.004883 123.127405 
L 591.577695 191.336652 
L 591.970898 199.287064 
L 592.1675 201.135314 
L 592.364102 201.340675 
L 592.560703 200.401881 
L 592.953906 195.707912 
L 593.740313 178.780283 
L 594.919922 150.909838 
L 595.509727 141.932621 
L 595.90293 140.113708 
L 596.099531 140.289732 
L 596.689336 143.868884 
L 597.475742 150.733814 
L 598.262148 159.006936 
L 598.851953 167.162708 
L 599.441758 180.511185 
L 600.228164 204.098383 
L 603.177188 307.248367 
L 603.766992 318.807268 
L 604.356797 325.554849 
L 604.946602 330.542192 
L 605.536406 333.710622 
L 605.733008 334.003995 
L 605.929609 333.739959 
L 606.126211 332.507792 
L 606.519414 326.816354 
L 606.912617 315.961549 
L 607.502422 289.528632 
L 608.288828 236.340087 
L 610.058242 103.618093 
L 610.451445 89.213474 
L 610.648047 86.045044 
L 610.844648 86.103719 
L 611.04125 89.008112 
L 611.237852 94.494189 
L 611.631055 114.062176 
L 612.220859 158.390852 
L 613.59707 266.029446 
L 614.186875 292.374351 
L 614.580078 299.943377 
L 614.77668 301.028857 
L 614.973281 299.767353 
L 615.366484 292.521037 
L 615.956289 272.571666 
L 616.939297 234.931896 
L 617.922305 208.675003 
L 618.708711 186.290635 
L 619.495117 155.046399 
L 620.871328 99.276171 
L 621.264531 89.68287 
L 621.657734 85.10625 
L 621.854336 84.900889 
L 622.050938 86.133056 
L 622.247539 88.744077 
L 622.640742 99.07081 
L 623.230547 124.652945 
L 624.410156 182.447447 
L 624.803359 194.651768 
L 625.196563 201.252663 
L 625.393164 202.807541 
L 625.589766 202.748866 
L 625.786367 201.83941 
L 625.982969 200.079171 
L 626.572773 190.544545 
L 628.342188 153.814232 
L 628.735391 149.883032 
L 628.931992 148.768214 
L 629.128594 148.328155 
L 629.521797 149.266949 
L 630.701406 156.161217 
L 631.291211 160.737837 
L 631.881016 167.749454 
L 632.47082 179.601728 
L 633.257227 204.597117 
L 634.830039 264.855953 
L 635.813047 300.530123 
L 636.402852 315.72685 
L 636.796055 322.855817 
L 637.385859 330.366168 
L 638.76207 343.597295 
L 638.958672 344.682776 
L 639.155273 344.8588 
L 639.351875 343.949343 
L 639.548477 342.013081 
L 639.94168 333.62261 
L 640.334883 318.807268 
L 640.924688 285.714781 
L 641.711094 225.602631 
L 642.890703 127.029267 
L 643.283906 104.322189 
L 643.677109 91.413772 
L 643.873711 90.093593 
L 644.070313 91.061724 
L 644.266914 95.520995 
L 644.660117 112.976695 
L 645.249922 154.019593 
L 646.626133 259.633912 
L 647.215938 286.917611 
L 647.609141 295.601455 
L 647.805742 297.244344 
L 648.002344 296.950971 
L 648.198945 295.190733 
L 648.592148 287.827068 
L 650.951367 225.749318 
L 651.541172 210.787289 
L 652.130977 189.077679 
L 654.293594 95.785031 
L 654.686797 89.301485 
L 654.883398 88.186668 
L 655.08 88.509378 
L 655.276602 90.621664 
L 655.669805 99.862917 
L 656.063008 115.353017 
L 657.832422 195.825261 
L 658.225625 203.482299 
L 658.422227 205.594585 
L 658.618828 206.210669 
L 658.81543 205.887959 
L 659.012031 205.037177 
L 659.601836 198.113571 
L 660.584844 178.780283 
L 661.567852 160.004404 
L 661.961055 155.222423 
L 662.354258 152.376704 
L 662.747461 151.232549 
L 662.944063 151.43791 
L 663.140664 151.232549 
L 663.533867 151.613934 
L 663.730469 151.555259 
L 664.320273 152.582065 
L 664.516875 153.374172 
L 664.910078 156.337241 
L 665.303281 162.703437 
L 665.696484 172.003365 
L 666.482891 197.878873 
L 668.055703 258.049697 
L 669.038711 290.819473 
L 669.825117 308.099149 
L 671.791133 338.551278 
L 672.184336 342.365128 
L 672.380938 342.951875 
L 672.577539 342.365128 
L 672.774141 340.16483 
L 673.167344 330.688879 
L 673.560547 314.377334 
L 674.150352 278.116418 
L 675.133359 194.123697 
L 676.116367 112.389949 
L 676.50957 91.501784 
L 676.902773 81.556435 
L 677.099375 81.439086 
L 677.295977 83.962095 
L 677.68918 98.542738 
L 678.082383 121.895238 
L 679.065391 197.028091 
L 679.851797 249.043143 
L 680.441602 272.835702 
L 680.834805 280.346053 
L 681.031406 281.666232 
L 681.228008 281.636895 
L 681.424609 280.844788 
L 681.817813 275.329373 
L 682.211016 267.261613 
L 682.997422 249.83525 
L 683.783828 235.518642 
L 684.570234 217.182823 
L 685.160039 195.062491 
L 686.143047 143.986233 
L 687.126055 98.63075 
L 687.519258 86.925163 
L 687.912461 80.382943 
L 688.109063 79.884209 
L 688.305664 80.41228 
L 688.698867 87.247874 
L 689.09207 100.009604 
L 689.681875 127.117279 
L 690.468281 164.933073 
L 691.058086 184.501059 
L 691.451289 191.923399 
L 691.647891 193.947673 
L 692.041094 195.414539 
L 692.630898 192.832855 
L 693.024102 188.696294 
L 693.417305 182.770158 
L 695.186719 156.45459 
L 695.776523 153.315498 
L 696.169727 152.230017 
L 696.366328 151.496584 
L 696.56293 151.261886 
L 696.759531 150.381767 
L 697.545938 149.149599 
L 697.939141 150.851163 
L 698.332344 156.278566 
L 698.725547 164.463676 
L 699.511953 188.138885 
L 700.691563 231.704792 
L 702.067773 280.639426 
L 702.85418 300.706147 
L 705.213398 347.352471 
L 705.606602 349.846143 
L 705.803203 348.936686 
L 705.999805 346.413677 
L 706.393008 336.204293 
L 706.786211 318.836605 
L 707.376016 280.668764 
L 708.162422 213.779695 
L 709.342031 115.499704 
L 709.735234 96.371777 
L 709.931836 91.32576 
L 710.128438 89.477509 
L 710.325039 90.210942 
L 710.521641 94.523527 
L 710.914844 110.307 
L 711.504648 148.973576 
L 712.684258 236.457436 
L 713.274063 267.437637 
L 713.667266 280.463403 
L 714.060469 287.563032 
L 714.25707 288.795199 
L 714.453672 288.971223 
L 714.650273 287.768393 
L 715.240078 278.673827 
L 716.616289 253.121029 
L 717.009492 246.109412 
L 717.599297 232.115514 
L 718.189102 210.523254 
L 718.975508 170.683186 
L 720.155117 110.395012 
L 720.744922 91.003049 
L 721.138125 85.10625 
L 721.334727 84.226131 
L 721.531328 85.164925 
L 721.924531 91.795157 
L 722.317734 104.351526 
L 723.104141 139.702985 
L 723.890547 172.003365 
L 724.480352 186.290635 
L 724.873555 191.101954 
L 725.266758 192.89153 
L 725.659961 192.070085 
L 726.249766 187.669489 
L 726.83957 180.217812 
L 727.625977 168.189514 
L 728.215781 162.644762 
L 728.805586 159.270972 
L 729.002188 158.860249 
L 729.985195 154.635677 
L 730.378398 152.464716 
L 730.575 151.672608 
L 730.968203 151.819295 
L 731.361406 154.958387 
L 731.754609 161.03121 
L 732.344414 176.579985 
L 733.524023 219.383121 
L 734.703633 264.767941 
L 735.490039 289.44062 
L 736.276445 307.101681 
L 736.86625 318.836605 
L 737.456055 333.387911 
L 738.242461 352.60385 
L 738.635664 358.06059 
L 738.832266 358.647336 
L 739.028867 358.031252 
L 739.225469 355.625593 
L 739.618672 345.328197 
L 740.011875 327.139064 
L 740.60168 286.800262 
L 741.584688 196.998753 
L 742.371094 129.112216 
L 742.764297 106.199776 
L 743.1575 95.403646 
L 743.354102 94.406178 
L 743.550703 96.811837 
L 743.943906 109.602905 
L 744.533711 145.042376 
L 745.909922 241.034057 
L 746.499727 268.024383 
L 746.89293 278.732501 
L 747.286133 283.661169 
L 747.482734 284.42394 
L 747.679336 283.602495 
L 748.072539 279.876656 
L 750.628359 240.359299 
L 751.021563 227.949616 
L 751.611367 201.546037 
L 753.773984 90.827026 
L 754.167188 82.524567 
L 754.363789 81.057701 
L 754.560391 80.793665 
L 754.953594 86.250405 
L 755.346797 98.044004 
L 755.936602 123.186079 
L 756.919609 165.255783 
L 757.509414 180.77522 
L 758.099219 188.168223 
L 758.492422 189.371053 
L 758.689023 189.283041 
L 759.082227 187.7575 
L 759.278828 186.936056 
L 760.065234 179.132331 
L 761.048242 167.397407 
L 761.441445 164.405001 
L 762.227852 160.092416 
L 763.014258 152.728751 
L 763.800664 144.396955 
L 763.997266 143.282137 
L 764.193867 143.194125 
L 764.58707 145.922495 
L 764.980273 152.934113 
L 765.373477 163.143497 
L 766.356484 198.172246 
L 768.125898 263.301076 
L 768.912305 283.279784 
L 770.091914 308.949931 
L 771.861328 356.535049 
L 772.05793 357.327157 
L 772.254531 356.535049 
L 772.647734 348.789999 
L 773.040938 332.918514 
L 773.630742 295.014709 
L 774.417148 225.426608 
L 775.400156 135.625099 
L 775.989961 102.796648 
L 776.383164 94.728888 
L 776.579766 95.814368 
L 776.776367 99.686893 
L 777.16957 115.382355 
L 777.955977 164.845061 
L 778.938984 228.008291 
L 779.528789 253.707775 
L 780.118594 268.112395 
L 780.511797 271.926245 
L 780.708398 272.043594 
L 780.905 271.310162 
L 781.298203 267.965708 
L 781.888008 261.423488 
L 782.477813 256.465482 
L 783.067617 251.566151 
L 783.46082 246.402785 
L 783.854023 237.308218 
L 784.247227 223.402333 
L 784.837031 193.830324 
L 786.606445 96.049067 
L 786.999648 83.610047 
L 787.392852 77.390537 
L 787.589453 76.891803 
L 787.786055 77.830597 
L 788.179258 84.959563 
L 788.769063 105.994415 
L 790.145273 163.583556 
L 790.735078 177.606791 
L 791.324883 185.175817 
L 791.718086 187.669489 
L 792.111289 188.19756 
L 792.307891 188.080211 
L 792.701094 186.495996 
L 793.094297 183.415578 
L 794.863711 166.92801 
L 795.256914 163.495544 
L 796.239922 151.115199 
L 796.829727 143.223463 
L 797.026328 141.639248 
L 797.22293 141.052502 
L 797.419531 141.72726 
L 797.616133 143.164788 
L 798.009336 149.91237 
L 798.402539 159.769706 
L 799.385547 193.771649 
L 800.958359 249.747238 
L 801.744766 270.899439 
L 803.120977 302.349036 
L 803.907383 328.576592 
L 804.693789 354.012041 
L 805.086992 359.615467 
L 805.283594 359.850166 
L 805.480195 358.177939 
L 805.676797 354.657462 
L 806.07 341.426334 
L 806.463203 319.951423 
L 807.053008 274.625278 
L 808.822422 121.689877 
L 809.215625 105.730379 
L 809.412227 101.769843 
L 809.608828 101.271108 
L 809.80543 103.295383 
L 810.198633 115.411692 
L 810.788438 147.242674 
L 812.164648 228.12564 
L 812.754453 251.918199 
L 813.344258 265.76541 
L 813.737461 270.077995 
L 814.130664 271.1048 
L 815.113672 268.288419 
L 815.310273 268.611129 
L 815.506875 268.347093 
L 815.900078 269.021851 
L 816.09668 268.523117 
L 816.293281 267.61366 
L 816.489883 266.058783 
L 816.883086 258.724455 
L 817.276289 246.402785 
L 817.866094 218.503002 
L 819.832109 107.490618 
L 820.225313 94.670213 
L 820.618516 87.893295 
L 820.815117 87.39456 
L 821.011719 88.15733 
L 821.20832 90.827026 
L 821.601523 100.59635 
L 822.191328 123.010056 
L 823.174336 161.91133 
L 823.764141 177.020045 
L 824.353945 186.378647 
L 824.94375 191.277978 
L 825.336953 193.008879 
L 825.533555 193.067554 
L 825.730156 192.832855 
L 825.926758 192.363458 
L 826.516563 188.901656 
L 827.302969 182.271423 
L 828.482578 172.003365 
L 829.072383 162.850124 
L 830.055391 147.536047 
L 830.251992 146.157194 
L 830.448594 145.98117 
L 830.645195 146.30388 
L 831.038398 151.408572 
L 831.431602 159.828381 
L 832.021406 177.225406 
L 833.987422 245.58134 
L 834.773828 267.202938 
L 836.150039 299.561992 
L 836.739844 319.716724 
L 837.919453 360.084864 
L 838.312656 364.60281 
L 838.509258 363.928052 
L 838.705859 361.375706 
L 839.099063 349.87548 
L 839.492266 330.01412 
L 840.08207 286.389539 
L 842.048086 114.942295 
L 842.441289 100.361652 
L 842.637891 98.073341 
L 842.834492 98.073341 
L 843.031094 100.713699 
L 843.424297 113.534104 
L 844.014102 144.01557 
L 845.390313 219.265772 
L 845.980117 241.503454 
L 846.37332 251.36079 
L 846.766523 257.550963 
L 847.159727 260.866079 
L 847.946133 263.389088 
L 848.142734 263.887822 
L 848.929141 268.112395 
L 849.125742 268.757816 
L 849.322344 268.992514 
L 849.518945 268.699141 
L 849.912148 263.594449 
L 850.305352 253.062354 
L 850.895156 227.656243 
L 852.074766 157.65742 
L 852.861172 116.203799 
L 853.057773 108.01869 
L 853.057773 108.01869 
" style="fill:none;stroke:#0000ff;stroke-linecap:square;stroke-width:0.7;"/>
   </g>
   <g id="patch_3">
    <path d="M 47.974375 13.006875 
L 853.254375 13.006875 
" style="fill:none;stroke:#000000;stroke-linecap:square;stroke-linejoin:miter;"/>
   </g>
   <g id="patch_4">
    <path d="M 853.254375 397.536875 
L 853.254375 13.006875 
" style="fill:none;stroke:#000000;stroke-linecap:square;stroke-linejoin:miter;"/>
   </g>
   <g id="patch_5">
    <path d="M 47.974375 397.536875 
L 853.254375 397.536875 
" style="fill:none;stroke:#000000;stroke-linecap:square;stroke-linejoin:miter;"/>
   </g>
   <g id="patch_6">
    <path d="M 47.974375 397.536875 
L 47.974375 13.006875 
" style="fill:none;stroke:#000000;stroke-linecap:square;stroke-linejoin:miter;"/>
   </g>
   <g id="matplotlib.axis_1">
    <g id="xtick_1">
     <g id="line2d_2">
      <defs>
       <path d="M 0 0 
L 0 -4 
" id="md1ea9c6d9b" style="stroke:#000000;stroke-width:0.5;"/>
      </defs>
      <g>
       <use style="stroke:#000000;stroke-width:0.5;" x="47.974375" xlink:href="#md1ea9c6d9b" y="397.536875"/>
      </g>
     </g>
     <g id="line2d_3">
      <defs>
       <path d="M 0 0 
L 0 4 
" id="m09a5542da6" style="stroke:#000000;stroke-width:0.5;"/>
      </defs>
      <g>
       <use style="stroke:#000000;stroke-width:0.5;" x="47.974375" xlink:href="#m09a5542da6" y="13.006875"/>
      </g>
     </g>
     <g id="text_1">
      <!-- 0 -->
      <defs>
       <path d="M 31.78125 66.40625 
Q 24.171875 66.40625 20.328125 58.90625 
Q 16.5 51.421875 16.5 36.375 
Q 16.5 21.390625 20.328125 13.890625 
Q 24.171875 6.390625 31.78125 6.390625 
Q 39.453125 6.390625 43.28125 13.890625 
Q 47.125 21.390625 47.125 36.375 
Q 47.125 51.421875 43.28125 58.90625 
Q 39.453125 66.40625 31.78125 66.40625 
M 31.78125 74.21875 
Q 44.046875 74.21875 50.515625 64.515625 
Q 56.984375 54.828125 56.984375 36.375 
Q 56.984375 17.96875 50.515625 8.265625 
Q 44.046875 -1.421875 31.78125 -1.421875 
Q 19.53125 -1.421875 13.0625 8.265625 
Q 6.59375 17.96875 6.59375 36.375 
Q 6.59375 54.828125 13.0625 64.515625 
Q 19.53125 74.21875 31.78125 74.21875 
" id="BitstreamVeraSans-Roman-30"/>
      </defs>
      <g transform="translate(44.156875 410.655)scale(0.12 -0.12)">
       <use xlink:href="#BitstreamVeraSans-Roman-30"/>
      </g>
     </g>
    </g>
    <g id="xtick_2">
     <g id="line2d_4">
      <g>
       <use style="stroke:#000000;stroke-width:0.5;" x="146.27515625" xlink:href="#md1ea9c6d9b" y="397.536875"/>
      </g>
     </g>
     <g id="line2d_5">
      <g>
       <use style="stroke:#000000;stroke-width:0.5;" x="146.27515625" xlink:href="#m09a5542da6" y="13.006875"/>
      </g>
     </g>
     <g id="text_2">
      <!-- 500 -->
      <defs>
       <path d="M 10.796875 72.90625 
L 49.515625 72.90625 
L 49.515625 64.59375 
L 19.828125 64.59375 
L 19.828125 46.734375 
Q 21.96875 47.46875 24.109375 47.828125 
Q 26.265625 48.1875 28.421875 48.1875 
Q 40.625 48.1875 47.75 41.5 
Q 54.890625 34.8125 54.890625 23.390625 
Q 54.890625 11.625 47.5625 5.09375 
Q 40.234375 -1.421875 26.90625 -1.421875 
Q 22.3125 -1.421875 17.546875 -0.640625 
Q 12.796875 0.140625 7.71875 1.703125 
L 7.71875 11.625 
Q 12.109375 9.234375 16.796875 8.0625 
Q 21.484375 6.890625 26.703125 6.890625 
Q 35.15625 6.890625 40.078125 11.328125 
Q 45.015625 15.765625 45.015625 23.390625 
Q 45.015625 31 40.078125 35.4375 
Q 35.15625 39.890625 26.703125 39.890625 
Q 22.75 39.890625 18.8125 39.015625 
Q 14.890625 38.140625 10.796875 36.28125 
z
" id="BitstreamVeraSans-Roman-35"/>
      </defs>
      <g transform="translate(134.82265625 410.655)scale(0.12 -0.12)">
       <use xlink:href="#BitstreamVeraSans-Roman-35"/>
       <use x="63.623046875" xlink:href="#BitstreamVeraSans-Roman-30"/>
       <use x="127.24609375" xlink:href="#BitstreamVeraSans-Roman-30"/>
      </g>
     </g>
    </g>
    <g id="xtick_3">
     <g id="line2d_6">
      <g>
       <use style="stroke:#000000;stroke-width:0.5;" x="244.5759375" xlink:href="#md1ea9c6d9b" y="397.536875"/>
      </g>
     </g>
     <g id="line2d_7">
      <g>
       <use style="stroke:#000000;stroke-width:0.5;" x="244.5759375" xlink:href="#m09a5542da6" y="13.006875"/>
      </g>
     </g>
     <g id="text_3">
      <!-- 1000 -->
      <defs>
       <path d="M 12.40625 8.296875 
L 28.515625 8.296875 
L 28.515625 63.921875 
L 10.984375 60.40625 
L 10.984375 69.390625 
L 28.421875 72.90625 
L 38.28125 72.90625 
L 38.28125 8.296875 
L 54.390625 8.296875 
L 54.390625 0 
L 12.40625 0 
z
" id="BitstreamVeraSans-Roman-31"/>
      </defs>
      <g transform="translate(229.3059375 410.655)scale(0.12 -0.12)">
       <use xlink:href="#BitstreamVeraSans-Roman-31"/>
       <use x="63.623046875" xlink:href="#BitstreamVeraSans-Roman-30"/>
       <use x="127.24609375" xlink:href="#BitstreamVeraSans-Roman-30"/>
       <use x="190.869140625" xlink:href="#BitstreamVeraSans-Roman-30"/>
      </g>
     </g>
    </g>
    <g id="xtick_4">
     <g id="line2d_8">
      <g>
       <use style="stroke:#000000;stroke-width:0.5;" x="342.87671875" xlink:href="#md1ea9c6d9b" y="397.536875"/>
      </g>
     </g>
     <g id="line2d_9">
      <g>
       <use style="stroke:#000000;stroke-width:0.5;" x="342.87671875" xlink:href="#m09a5542da6" y="13.006875"/>
      </g>
     </g>
     <g id="text_4">
      <!-- 1500 -->
      <g transform="translate(327.60671875 410.655)scale(0.12 -0.12)">
       <use xlink:href="#BitstreamVeraSans-Roman-31"/>
       <use x="63.623046875" xlink:href="#BitstreamVeraSans-Roman-35"/>
       <use x="127.24609375" xlink:href="#BitstreamVeraSans-Roman-30"/>
       <use x="190.869140625" xlink:href="#BitstreamVeraSans-Roman-30"/>
      </g>
     </g>
    </g>
    <g id="xtick_5">
     <g id="line2d_10">
      <g>
       <use style="stroke:#000000;stroke-width:0.5;" x="441.1775" xlink:href="#md1ea9c6d9b" y="397.536875"/>
      </g>
     </g>
     <g id="line2d_11">
      <g>
       <use style="stroke:#000000;stroke-width:0.5;" x="441.1775" xlink:href="#m09a5542da6" y="13.006875"/>
      </g>
     </g>
     <g id="text_5">
      <!-- 2000 -->
      <defs>
       <path d="M 19.1875 8.296875 
L 53.609375 8.296875 
L 53.609375 0 
L 7.328125 0 
L 7.328125 8.296875 
Q 12.9375 14.109375 22.625 23.890625 
Q 32.328125 33.6875 34.8125 36.53125 
Q 39.546875 41.84375 41.421875 45.53125 
Q 43.3125 49.21875 43.3125 52.78125 
Q 43.3125 58.59375 39.234375 62.25 
Q 35.15625 65.921875 28.609375 65.921875 
Q 23.96875 65.921875 18.8125 64.3125 
Q 13.671875 62.703125 7.8125 59.421875 
L 7.8125 69.390625 
Q 13.765625 71.78125 18.9375 73 
Q 24.125 74.21875 28.421875 74.21875 
Q 39.75 74.21875 46.484375 68.546875 
Q 53.21875 62.890625 53.21875 53.421875 
Q 53.21875 48.921875 51.53125 44.890625 
Q 49.859375 40.875 45.40625 35.40625 
Q 44.1875 33.984375 37.640625 27.21875 
Q 31.109375 20.453125 19.1875 8.296875 
" id="BitstreamVeraSans-Roman-32"/>
      </defs>
      <g transform="translate(425.9075 410.655)scale(0.12 -0.12)">
       <use xlink:href="#BitstreamVeraSans-Roman-32"/>
       <use x="63.623046875" xlink:href="#BitstreamVeraSans-Roman-30"/>
       <use x="127.24609375" xlink:href="#BitstreamVeraSans-Roman-30"/>
       <use x="190.869140625" xlink:href="#BitstreamVeraSans-Roman-30"/>
      </g>
     </g>
    </g>
    <g id="xtick_6">
     <g id="line2d_12">
      <g>
       <use style="stroke:#000000;stroke-width:0.5;" x="539.47828125" xlink:href="#md1ea9c6d9b" y="397.536875"/>
      </g>
     </g>
     <g id="line2d_13">
      <g>
       <use style="stroke:#000000;stroke-width:0.5;" x="539.47828125" xlink:href="#m09a5542da6" y="13.006875"/>
      </g>
     </g>
     <g id="text_6">
      <!-- 2500 -->
      <g transform="translate(524.20828125 410.655)scale(0.12 -0.12)">
       <use xlink:href="#BitstreamVeraSans-Roman-32"/>
       <use x="63.623046875" xlink:href="#BitstreamVeraSans-Roman-35"/>
       <use x="127.24609375" xlink:href="#BitstreamVeraSans-Roman-30"/>
       <use x="190.869140625" xlink:href="#BitstreamVeraSans-Roman-30"/>
      </g>
     </g>
    </g>
    <g id="xtick_7">
     <g id="line2d_14">
      <g>
       <use style="stroke:#000000;stroke-width:0.5;" x="637.7790625" xlink:href="#md1ea9c6d9b" y="397.536875"/>
      </g>
     </g>
     <g id="line2d_15">
      <g>
       <use style="stroke:#000000;stroke-width:0.5;" x="637.7790625" xlink:href="#m09a5542da6" y="13.006875"/>
      </g>
     </g>
     <g id="text_7">
      <!-- 3000 -->
      <defs>
       <path d="M 40.578125 39.3125 
Q 47.65625 37.796875 51.625 33 
Q 55.609375 28.21875 55.609375 21.1875 
Q 55.609375 10.40625 48.1875 4.484375 
Q 40.765625 -1.421875 27.09375 -1.421875 
Q 22.515625 -1.421875 17.65625 -0.515625 
Q 12.796875 0.390625 7.625 2.203125 
L 7.625 11.71875 
Q 11.71875 9.328125 16.59375 8.109375 
Q 21.484375 6.890625 26.8125 6.890625 
Q 36.078125 6.890625 40.9375 10.546875 
Q 45.796875 14.203125 45.796875 21.1875 
Q 45.796875 27.640625 41.28125 31.265625 
Q 36.765625 34.90625 28.71875 34.90625 
L 20.21875 34.90625 
L 20.21875 43.015625 
L 29.109375 43.015625 
Q 36.375 43.015625 40.234375 45.921875 
Q 44.09375 48.828125 44.09375 54.296875 
Q 44.09375 59.90625 40.109375 62.90625 
Q 36.140625 65.921875 28.71875 65.921875 
Q 24.65625 65.921875 20.015625 65.03125 
Q 15.375 64.15625 9.8125 62.3125 
L 9.8125 71.09375 
Q 15.4375 72.65625 20.34375 73.4375 
Q 25.25 74.21875 29.59375 74.21875 
Q 40.828125 74.21875 47.359375 69.109375 
Q 53.90625 64.015625 53.90625 55.328125 
Q 53.90625 49.265625 50.4375 45.09375 
Q 46.96875 40.921875 40.578125 39.3125 
" id="BitstreamVeraSans-Roman-33"/>
      </defs>
      <g transform="translate(622.5090625 410.655)scale(0.12 -0.12)">
       <use xlink:href="#BitstreamVeraSans-Roman-33"/>
       <use x="63.623046875" xlink:href="#BitstreamVeraSans-Roman-30"/>
       <use x="127.24609375" xlink:href="#BitstreamVeraSans-Roman-30"/>
       <use x="190.869140625" xlink:href="#BitstreamVeraSans-Roman-30"/>
      </g>
     </g>
    </g>
    <g id="xtick_8">
     <g id="line2d_16">
      <g>
       <use style="stroke:#000000;stroke-width:0.5;" x="736.07984375" xlink:href="#md1ea9c6d9b" y="397.536875"/>
      </g>
     </g>
     <g id="line2d_17">
      <g>
       <use style="stroke:#000000;stroke-width:0.5;" x="736.07984375" xlink:href="#m09a5542da6" y="13.006875"/>
      </g>
     </g>
     <g id="text_8">
      <!-- 3500 -->
      <g transform="translate(720.80984375 410.655)scale(0.12 -0.12)">
       <use xlink:href="#BitstreamVeraSans-Roman-33"/>
       <use x="63.623046875" xlink:href="#BitstreamVeraSans-Roman-35"/>
       <use x="127.24609375" xlink:href="#BitstreamVeraSans-Roman-30"/>
       <use x="190.869140625" xlink:href="#BitstreamVeraSans-Roman-30"/>
      </g>
     </g>
    </g>
    <g id="xtick_9">
     <g id="line2d_18">
      <g>
       <use style="stroke:#000000;stroke-width:0.5;" x="834.380625" xlink:href="#md1ea9c6d9b" y="397.536875"/>
      </g>
     </g>
     <g id="line2d_19">
      <g>
       <use style="stroke:#000000;stroke-width:0.5;" x="834.380625" xlink:href="#m09a5542da6" y="13.006875"/>
      </g>
     </g>
     <g id="text_9">
      <!-- 4000 -->
      <defs>
       <path d="M 37.796875 64.3125 
L 12.890625 25.390625 
L 37.796875 25.390625 
z
M 35.203125 72.90625 
L 47.609375 72.90625 
L 47.609375 25.390625 
L 58.015625 25.390625 
L 58.015625 17.1875 
L 47.609375 17.1875 
L 47.609375 0 
L 37.796875 0 
L 37.796875 17.1875 
L 4.890625 17.1875 
L 4.890625 26.703125 
z
" id="BitstreamVeraSans-Roman-34"/>
      </defs>
      <g transform="translate(819.110625 410.655)scale(0.12 -0.12)">
       <use xlink:href="#BitstreamVeraSans-Roman-34"/>
       <use x="63.623046875" xlink:href="#BitstreamVeraSans-Roman-30"/>
       <use x="127.24609375" xlink:href="#BitstreamVeraSans-Roman-30"/>
       <use x="190.869140625" xlink:href="#BitstreamVeraSans-Roman-30"/>
      </g>
     </g>
    </g>
   </g>
   <g id="matplotlib.axis_2">
    <g id="ytick_1">
     <g id="line2d_20">
      <defs>
       <path d="M 0 0 
L 4 0 
" id="m21e52f595b" style="stroke:#000000;stroke-width:0.5;"/>
      </defs>
      <g>
       <use style="stroke:#000000;stroke-width:0.5;" x="47.974375" xlink:href="#m21e52f595b" y="397.536875"/>
      </g>
     </g>
     <g id="line2d_21">
      <defs>
       <path d="M 0 0 
L -4 0 
" id="m7af9f261e7" style="stroke:#000000;stroke-width:0.5;"/>
      </defs>
      <g>
       <use style="stroke:#000000;stroke-width:0.5;" x="853.254375" xlink:href="#m7af9f261e7" y="397.536875"/>
      </g>
     </g>
     <g id="text_10">
      <!-- −0.20 -->
      <defs>
       <path d="M 10.59375 35.5 
L 73.1875 35.5 
L 73.1875 27.203125 
L 10.59375 27.203125 
z
" id="BitstreamVeraSans-Roman-2212"/>
       <path d="M 10.6875 12.40625 
L 21 12.40625 
L 21 0 
L 10.6875 0 
z
" id="BitstreamVeraSans-Roman-2e"/>
      </defs>
      <g transform="translate(7.2 400.848125)scale(0.12 -0.12)">
       <use xlink:href="#BitstreamVeraSans-Roman-2212"/>
       <use x="83.7890625" xlink:href="#BitstreamVeraSans-Roman-30"/>
       <use x="147.412109375" xlink:href="#BitstreamVeraSans-Roman-2e"/>
       <use x="179.19921875" xlink:href="#BitstreamVeraSans-Roman-32"/>
       <use x="242.822265625" xlink:href="#BitstreamVeraSans-Roman-30"/>
      </g>
     </g>
    </g>
    <g id="ytick_2">
     <g id="line2d_22">
      <g>
       <use style="stroke:#000000;stroke-width:0.5;" x="47.974375" xlink:href="#m21e52f595b" y="349.470625"/>
      </g>
     </g>
     <g id="line2d_23">
      <g>
       <use style="stroke:#000000;stroke-width:0.5;" x="853.254375" xlink:href="#m7af9f261e7" y="349.470625"/>
      </g>
     </g>
     <g id="text_11">
      <!-- −0.15 -->
      <g transform="translate(7.2 352.781875)scale(0.12 -0.12)">
       <use xlink:href="#BitstreamVeraSans-Roman-2212"/>
       <use x="83.7890625" xlink:href="#BitstreamVeraSans-Roman-30"/>
       <use x="147.412109375" xlink:href="#BitstreamVeraSans-Roman-2e"/>
       <use x="179.19921875" xlink:href="#BitstreamVeraSans-Roman-31"/>
       <use x="242.822265625" xlink:href="#BitstreamVeraSans-Roman-35"/>
      </g>
     </g>
    </g>
    <g id="ytick_3">
     <g id="line2d_24">
      <g>
       <use style="stroke:#000000;stroke-width:0.5;" x="47.974375" xlink:href="#m21e52f595b" y="301.404375"/>
      </g>
     </g>
     <g id="line2d_25">
      <g>
       <use style="stroke:#000000;stroke-width:0.5;" x="853.254375" xlink:href="#m7af9f261e7" y="301.404375"/>
      </g>
     </g>
     <g id="text_12">
      <!-- −0.10 -->
      <g transform="translate(7.2 304.715625)scale(0.12 -0.12)">
       <use xlink:href="#BitstreamVeraSans-Roman-2212"/>
       <use x="83.7890625" xlink:href="#BitstreamVeraSans-Roman-30"/>
       <use x="147.412109375" xlink:href="#BitstreamVeraSans-Roman-2e"/>
       <use x="179.19921875" xlink:href="#BitstreamVeraSans-Roman-31"/>
       <use x="242.822265625" xlink:href="#BitstreamVeraSans-Roman-30"/>
      </g>
     </g>
    </g>
    <g id="ytick_4">
     <g id="line2d_26">
      <g>
       <use style="stroke:#000000;stroke-width:0.5;" x="47.974375" xlink:href="#m21e52f595b" y="253.338125"/>
      </g>
     </g>
     <g id="line2d_27">
      <g>
       <use style="stroke:#000000;stroke-width:0.5;" x="853.254375" xlink:href="#m7af9f261e7" y="253.338125"/>
      </g>
     </g>
     <g id="text_13">
      <!-- −0.05 -->
      <g transform="translate(7.2 256.649375)scale(0.12 -0.12)">
       <use xlink:href="#BitstreamVeraSans-Roman-2212"/>
       <use x="83.7890625" xlink:href="#BitstreamVeraSans-Roman-30"/>
       <use x="147.412109375" xlink:href="#BitstreamVeraSans-Roman-2e"/>
       <use x="179.19921875" xlink:href="#BitstreamVeraSans-Roman-30"/>
       <use x="242.822265625" xlink:href="#BitstreamVeraSans-Roman-35"/>
      </g>
     </g>
    </g>
    <g id="ytick_5">
     <g id="line2d_28">
      <g>
       <use style="stroke:#000000;stroke-width:0.5;" x="47.974375" xlink:href="#m21e52f595b" y="205.271875"/>
      </g>
     </g>
     <g id="line2d_29">
      <g>
       <use style="stroke:#000000;stroke-width:0.5;" x="853.254375" xlink:href="#m7af9f261e7" y="205.271875"/>
      </g>
     </g>
     <g id="text_14">
      <!-- 0.00 -->
      <g transform="translate(17.255625 208.583125)scale(0.12 -0.12)">
       <use xlink:href="#BitstreamVeraSans-Roman-30"/>
       <use x="63.623046875" xlink:href="#BitstreamVeraSans-Roman-2e"/>
       <use x="95.41015625" xlink:href="#BitstreamVeraSans-Roman-30"/>
       <use x="159.033203125" xlink:href="#BitstreamVeraSans-Roman-30"/>
      </g>
     </g>
    </g>
    <g id="ytick_6">
     <g id="line2d_30">
      <g>
       <use style="stroke:#000000;stroke-width:0.5;" x="47.974375" xlink:href="#m21e52f595b" y="157.205625"/>
      </g>
     </g>
     <g id="line2d_31">
      <g>
       <use style="stroke:#000000;stroke-width:0.5;" x="853.254375" xlink:href="#m7af9f261e7" y="157.205625"/>
      </g>
     </g>
     <g id="text_15">
      <!-- 0.05 -->
      <g transform="translate(17.255625 160.516875)scale(0.12 -0.12)">
       <use xlink:href="#BitstreamVeraSans-Roman-30"/>
       <use x="63.623046875" xlink:href="#BitstreamVeraSans-Roman-2e"/>
       <use x="95.41015625" xlink:href="#BitstreamVeraSans-Roman-30"/>
       <use x="159.033203125" xlink:href="#BitstreamVeraSans-Roman-35"/>
      </g>
     </g>
    </g>
    <g id="ytick_7">
     <g id="line2d_32">
      <g>
       <use style="stroke:#000000;stroke-width:0.5;" x="47.974375" xlink:href="#m21e52f595b" y="109.139375"/>
      </g>
     </g>
     <g id="line2d_33">
      <g>
       <use style="stroke:#000000;stroke-width:0.5;" x="853.254375" xlink:href="#m7af9f261e7" y="109.139375"/>
      </g>
     </g>
     <g id="text_16">
      <!-- 0.10 -->
      <g transform="translate(17.255625 112.450625)scale(0.12 -0.12)">
       <use xlink:href="#BitstreamVeraSans-Roman-30"/>
       <use x="63.623046875" xlink:href="#BitstreamVeraSans-Roman-2e"/>
       <use x="95.41015625" xlink:href="#BitstreamVeraSans-Roman-31"/>
       <use x="159.033203125" xlink:href="#BitstreamVeraSans-Roman-30"/>
      </g>
     </g>
    </g>
    <g id="ytick_8">
     <g id="line2d_34">
      <g>
       <use style="stroke:#000000;stroke-width:0.5;" x="47.974375" xlink:href="#m21e52f595b" y="61.073125"/>
      </g>
     </g>
     <g id="line2d_35">
      <g>
       <use style="stroke:#000000;stroke-width:0.5;" x="853.254375" xlink:href="#m7af9f261e7" y="61.073125"/>
      </g>
     </g>
     <g id="text_17">
      <!-- 0.15 -->
      <g transform="translate(17.255625 64.384375)scale(0.12 -0.12)">
       <use xlink:href="#BitstreamVeraSans-Roman-30"/>
       <use x="63.623046875" xlink:href="#BitstreamVeraSans-Roman-2e"/>
       <use x="95.41015625" xlink:href="#BitstreamVeraSans-Roman-31"/>
       <use x="159.033203125" xlink:href="#BitstreamVeraSans-Roman-35"/>
      </g>
     </g>
    </g>
    <g id="ytick_9">
     <g id="line2d_36">
      <g>
       <use style="stroke:#000000;stroke-width:0.5;" x="47.974375" xlink:href="#m21e52f595b" y="13.006875"/>
      </g>
     </g>
     <g id="line2d_37">
      <g>
       <use style="stroke:#000000;stroke-width:0.5;" x="853.254375" xlink:href="#m7af9f261e7" y="13.006875"/>
      </g>
     </g>
     <g id="text_18">
      <!-- 0.20 -->
      <g transform="translate(17.255625 16.318125)scale(0.12 -0.12)">
       <use xlink:href="#BitstreamVeraSans-Roman-30"/>
       <use x="63.623046875" xlink:href="#BitstreamVeraSans-Roman-2e"/>
       <use x="95.41015625" xlink:href="#BitstreamVeraSans-Roman-32"/>
       <use x="159.033203125" xlink:href="#BitstreamVeraSans-Roman-30"/>
      </g>
     </g>
    </g>
   </g>
   <g id="text_19">
    <!-- datetime generated: 081917 163232  -->
    <defs>
     <path id="BitstreamVeraSans-Roman-20"/>
     <path d="M 33.015625 40.375 
Q 26.375 40.375 22.484375 35.828125 
Q 18.609375 31.296875 18.609375 23.390625 
Q 18.609375 15.53125 22.484375 10.953125 
Q 26.375 6.390625 33.015625 6.390625 
Q 39.65625 6.390625 43.53125 10.953125 
Q 47.40625 15.53125 47.40625 23.390625 
Q 47.40625 31.296875 43.53125 35.828125 
Q 39.65625 40.375 33.015625 40.375 
M 52.59375 71.296875 
L 52.59375 62.3125 
Q 48.875 64.0625 45.09375 64.984375 
Q 41.3125 65.921875 37.59375 65.921875 
Q 27.828125 65.921875 22.671875 59.328125 
Q 17.53125 52.734375 16.796875 39.40625 
Q 19.671875 43.65625 24.015625 45.921875 
Q 28.375 48.1875 33.59375 48.1875 
Q 44.578125 48.1875 50.953125 41.515625 
Q 57.328125 34.859375 57.328125 23.390625 
Q 57.328125 12.15625 50.6875 5.359375 
Q 44.046875 -1.421875 33.015625 -1.421875 
Q 20.359375 -1.421875 13.671875 8.265625 
Q 6.984375 17.96875 6.984375 36.375 
Q 6.984375 53.65625 15.1875 63.9375 
Q 23.390625 74.21875 37.203125 74.21875 
Q 40.921875 74.21875 44.703125 73.484375 
Q 48.484375 72.75 52.59375 71.296875 
" id="BitstreamVeraSans-Roman-36"/>
     <path d="M 8.203125 72.90625 
L 55.078125 72.90625 
L 55.078125 68.703125 
L 28.609375 0 
L 18.3125 0 
L 43.21875 64.59375 
L 8.203125 64.59375 
z
" id="BitstreamVeraSans-Roman-37"/>
     <path d="M 54.890625 33.015625 
L 54.890625 0 
L 45.90625 0 
L 45.90625 32.71875 
Q 45.90625 40.484375 42.875 44.328125 
Q 39.84375 48.1875 33.796875 48.1875 
Q 26.515625 48.1875 22.3125 43.546875 
Q 18.109375 38.921875 18.109375 30.90625 
L 18.109375 0 
L 9.078125 0 
L 9.078125 54.6875 
L 18.109375 54.6875 
L 18.109375 46.1875 
Q 21.34375 51.125 25.703125 53.5625 
Q 30.078125 56 35.796875 56 
Q 45.21875 56 50.046875 50.171875 
Q 54.890625 44.34375 54.890625 33.015625 
" id="BitstreamVeraSans-Roman-6e"/>
     <path d="M 52 44.1875 
Q 55.375 50.25 60.0625 53.125 
Q 64.75 56 71.09375 56 
Q 79.640625 56 84.28125 50.015625 
Q 88.921875 44.046875 88.921875 33.015625 
L 88.921875 0 
L 79.890625 0 
L 79.890625 32.71875 
Q 79.890625 40.578125 77.09375 44.375 
Q 74.3125 48.1875 68.609375 48.1875 
Q 61.625 48.1875 57.5625 43.546875 
Q 53.515625 38.921875 53.515625 30.90625 
L 53.515625 0 
L 44.484375 0 
L 44.484375 32.71875 
Q 44.484375 40.625 41.703125 44.40625 
Q 38.921875 48.1875 33.109375 48.1875 
Q 26.21875 48.1875 22.15625 43.53125 
Q 18.109375 38.875 18.109375 30.90625 
L 18.109375 0 
L 9.078125 0 
L 9.078125 54.6875 
L 18.109375 54.6875 
L 18.109375 46.1875 
Q 21.1875 51.21875 25.484375 53.609375 
Q 29.78125 56 35.6875 56 
Q 41.65625 56 45.828125 52.96875 
Q 50 49.953125 52 44.1875 
" id="BitstreamVeraSans-Roman-6d"/>
     <path d="M 31.78125 34.625 
Q 24.75 34.625 20.71875 30.859375 
Q 16.703125 27.09375 16.703125 20.515625 
Q 16.703125 13.921875 20.71875 10.15625 
Q 24.75 6.390625 31.78125 6.390625 
Q 38.8125 6.390625 42.859375 10.171875 
Q 46.921875 13.96875 46.921875 20.515625 
Q 46.921875 27.09375 42.890625 30.859375 
Q 38.875 34.625 31.78125 34.625 
M 21.921875 38.8125 
Q 15.578125 40.375 12.03125 44.71875 
Q 8.5 49.078125 8.5 55.328125 
Q 8.5 64.0625 14.71875 69.140625 
Q 20.953125 74.21875 31.78125 74.21875 
Q 42.671875 74.21875 48.875 69.140625 
Q 55.078125 64.0625 55.078125 55.328125 
Q 55.078125 49.078125 51.53125 44.71875 
Q 48 40.375 41.703125 38.8125 
Q 48.828125 37.15625 52.796875 32.3125 
Q 56.78125 27.484375 56.78125 20.515625 
Q 56.78125 9.90625 50.3125 4.234375 
Q 43.84375 -1.421875 31.78125 -1.421875 
Q 19.734375 -1.421875 13.25 4.234375 
Q 6.78125 9.90625 6.78125 20.515625 
Q 6.78125 27.484375 10.78125 32.3125 
Q 14.796875 37.15625 21.921875 38.8125 
M 18.3125 54.390625 
Q 18.3125 48.734375 21.84375 45.5625 
Q 25.390625 42.390625 31.78125 42.390625 
Q 38.140625 42.390625 41.71875 45.5625 
Q 45.3125 48.734375 45.3125 54.390625 
Q 45.3125 60.0625 41.71875 63.234375 
Q 38.140625 66.40625 31.78125 66.40625 
Q 25.390625 66.40625 21.84375 63.234375 
Q 18.3125 60.0625 18.3125 54.390625 
" id="BitstreamVeraSans-Roman-38"/>
     <path d="M 10.984375 1.515625 
L 10.984375 10.5 
Q 14.703125 8.734375 18.5 7.8125 
Q 22.3125 6.890625 25.984375 6.890625 
Q 35.75 6.890625 40.890625 13.453125 
Q 46.046875 20.015625 46.78125 33.40625 
Q 43.953125 29.203125 39.59375 26.953125 
Q 35.25 24.703125 29.984375 24.703125 
Q 19.046875 24.703125 12.671875 31.3125 
Q 6.296875 37.9375 6.296875 49.421875 
Q 6.296875 60.640625 12.9375 67.421875 
Q 19.578125 74.21875 30.609375 74.21875 
Q 43.265625 74.21875 49.921875 64.515625 
Q 56.59375 54.828125 56.59375 36.375 
Q 56.59375 19.140625 48.40625 8.859375 
Q 40.234375 -1.421875 26.421875 -1.421875 
Q 22.703125 -1.421875 18.890625 -0.6875 
Q 15.09375 0.046875 10.984375 1.515625 
M 30.609375 32.421875 
Q 37.25 32.421875 41.125 36.953125 
Q 45.015625 41.5 45.015625 49.421875 
Q 45.015625 57.28125 41.125 61.84375 
Q 37.25 66.40625 30.609375 66.40625 
Q 23.96875 66.40625 20.09375 61.84375 
Q 16.21875 57.28125 16.21875 49.421875 
Q 16.21875 41.5 20.09375 36.953125 
Q 23.96875 32.421875 30.609375 32.421875 
" id="BitstreamVeraSans-Roman-39"/>
     <path d="M 11.71875 12.40625 
L 22.015625 12.40625 
L 22.015625 0 
L 11.71875 0 
z
M 11.71875 51.703125 
L 22.015625 51.703125 
L 22.015625 39.3125 
L 11.71875 39.3125 
z
" id="BitstreamVeraSans-Roman-3a"/>
     <path d="M 9.421875 54.6875 
L 18.40625 54.6875 
L 18.40625 0 
L 9.421875 0 
z
M 9.421875 75.984375 
L 18.40625 75.984375 
L 18.40625 64.59375 
L 9.421875 64.59375 
z
" id="BitstreamVeraSans-Roman-69"/>
     <path d="M 41.109375 46.296875 
Q 39.59375 47.171875 37.8125 47.578125 
Q 36.03125 48 33.890625 48 
Q 26.265625 48 22.1875 43.046875 
Q 18.109375 38.09375 18.109375 28.8125 
L 18.109375 0 
L 9.078125 0 
L 9.078125 54.6875 
L 18.109375 54.6875 
L 18.109375 46.1875 
Q 20.953125 51.171875 25.484375 53.578125 
Q 30.03125 56 36.53125 56 
Q 37.453125 56 38.578125 55.875 
Q 39.703125 55.765625 41.0625 55.515625 
z
" id="BitstreamVeraSans-Roman-72"/>
     <path d="M 56.203125 29.59375 
L 56.203125 25.203125 
L 14.890625 25.203125 
Q 15.484375 15.921875 20.484375 11.0625 
Q 25.484375 6.203125 34.421875 6.203125 
Q 39.59375 6.203125 44.453125 7.46875 
Q 49.3125 8.734375 54.109375 11.28125 
L 54.109375 2.78125 
Q 49.265625 0.734375 44.1875 -0.34375 
Q 39.109375 -1.421875 33.890625 -1.421875 
Q 20.796875 -1.421875 13.15625 6.1875 
Q 5.515625 13.8125 5.515625 26.8125 
Q 5.515625 40.234375 12.765625 48.109375 
Q 20.015625 56 32.328125 56 
Q 43.359375 56 49.78125 48.890625 
Q 56.203125 41.796875 56.203125 29.59375 
M 47.21875 32.234375 
Q 47.125 39.59375 43.09375 43.984375 
Q 39.0625 48.390625 32.421875 48.390625 
Q 24.90625 48.390625 20.390625 44.140625 
Q 15.875 39.890625 15.1875 32.171875 
z
" id="BitstreamVeraSans-Roman-65"/>
     <path d="M 45.40625 46.390625 
L 45.40625 75.984375 
L 54.390625 75.984375 
L 54.390625 0 
L 45.40625 0 
L 45.40625 8.203125 
Q 42.578125 3.328125 38.25 0.953125 
Q 33.9375 -1.421875 27.875 -1.421875 
Q 17.96875 -1.421875 11.734375 6.484375 
Q 5.515625 14.40625 5.515625 27.296875 
Q 5.515625 40.1875 11.734375 48.09375 
Q 17.96875 56 27.875 56 
Q 33.9375 56 38.25 53.625 
Q 42.578125 51.265625 45.40625 46.390625 
M 14.796875 27.296875 
Q 14.796875 17.390625 18.875 11.75 
Q 22.953125 6.109375 30.078125 6.109375 
Q 37.203125 6.109375 41.296875 11.75 
Q 45.40625 17.390625 45.40625 27.296875 
Q 45.40625 37.203125 41.296875 42.84375 
Q 37.203125 48.484375 30.078125 48.484375 
Q 22.953125 48.484375 18.875 42.84375 
Q 14.796875 37.203125 14.796875 27.296875 
" id="BitstreamVeraSans-Roman-64"/>
     <path d="M 18.3125 70.21875 
L 18.3125 54.6875 
L 36.8125 54.6875 
L 36.8125 47.703125 
L 18.3125 47.703125 
L 18.3125 18.015625 
Q 18.3125 11.328125 20.140625 9.421875 
Q 21.96875 7.515625 27.59375 7.515625 
L 36.8125 7.515625 
L 36.8125 0 
L 27.59375 0 
Q 17.1875 0 13.234375 3.875 
Q 9.28125 7.765625 9.28125 18.015625 
L 9.28125 47.703125 
L 2.6875 47.703125 
L 2.6875 54.6875 
L 9.28125 54.6875 
L 9.28125 70.21875 
z
" id="BitstreamVeraSans-Roman-74"/>
     <path d="M 34.28125 27.484375 
Q 23.390625 27.484375 19.1875 25 
Q 14.984375 22.515625 14.984375 16.5 
Q 14.984375 11.71875 18.140625 8.90625 
Q 21.296875 6.109375 26.703125 6.109375 
Q 34.1875 6.109375 38.703125 11.40625 
Q 43.21875 16.703125 43.21875 25.484375 
L 43.21875 27.484375 
z
M 52.203125 31.203125 
L 52.203125 0 
L 43.21875 0 
L 43.21875 8.296875 
Q 40.140625 3.328125 35.546875 0.953125 
Q 30.953125 -1.421875 24.3125 -1.421875 
Q 15.921875 -1.421875 10.953125 3.296875 
Q 6 8.015625 6 15.921875 
Q 6 25.140625 12.171875 29.828125 
Q 18.359375 34.515625 30.609375 34.515625 
L 43.21875 34.515625 
L 43.21875 35.40625 
Q 43.21875 41.609375 39.140625 45 
Q 35.0625 48.390625 27.6875 48.390625 
Q 23 48.390625 18.546875 47.265625 
Q 14.109375 46.140625 10.015625 43.890625 
L 10.015625 52.203125 
Q 14.9375 54.109375 19.578125 55.046875 
Q 24.21875 56 28.609375 56 
Q 40.484375 56 46.34375 49.84375 
Q 52.203125 43.703125 52.203125 31.203125 
" id="BitstreamVeraSans-Roman-61"/>
     <path d="M 45.40625 27.984375 
Q 45.40625 37.75 41.375 43.109375 
Q 37.359375 48.484375 30.078125 48.484375 
Q 22.859375 48.484375 18.828125 43.109375 
Q 14.796875 37.75 14.796875 27.984375 
Q 14.796875 18.265625 18.828125 12.890625 
Q 22.859375 7.515625 30.078125 7.515625 
Q 37.359375 7.515625 41.375 12.890625 
Q 45.40625 18.265625 45.40625 27.984375 
M 54.390625 6.78125 
Q 54.390625 -7.171875 48.1875 -13.984375 
Q 42 -20.796875 29.203125 -20.796875 
Q 24.46875 -20.796875 20.265625 -20.09375 
Q 16.0625 -19.390625 12.109375 -17.921875 
L 12.109375 -9.1875 
Q 16.0625 -11.328125 19.921875 -12.34375 
Q 23.78125 -13.375 27.78125 -13.375 
Q 36.625 -13.375 41.015625 -8.765625 
Q 45.40625 -4.15625 45.40625 5.171875 
L 45.40625 9.625 
Q 42.625 4.78125 38.28125 2.390625 
Q 33.9375 0 27.875 0 
Q 17.828125 0 11.671875 7.65625 
Q 5.515625 15.328125 5.515625 27.984375 
Q 5.515625 40.671875 11.671875 48.328125 
Q 17.828125 56 27.875 56 
Q 33.9375 56 38.28125 53.609375 
Q 42.625 51.21875 45.40625 46.390625 
L 45.40625 54.6875 
L 54.390625 54.6875 
z
" id="BitstreamVeraSans-Roman-67"/>
    </defs>
    <g style="fill:#008000;" transform="translate(693.820325 26.776225)scale(0.08 -0.08)">
     <use xlink:href="#BitstreamVeraSans-Roman-64"/>
     <use x="63.4765625" xlink:href="#BitstreamVeraSans-Roman-61"/>
     <use x="124.755859375" xlink:href="#BitstreamVeraSans-Roman-74"/>
     <use x="163.96484375" xlink:href="#BitstreamVeraSans-Roman-65"/>
     <use x="225.48828125" xlink:href="#BitstreamVeraSans-Roman-74"/>
     <use x="264.697265625" xlink:href="#BitstreamVeraSans-Roman-69"/>
     <use x="292.48046875" xlink:href="#BitstreamVeraSans-Roman-6d"/>
     <use x="389.892578125" xlink:href="#BitstreamVeraSans-Roman-65"/>
     <use x="451.416015625" xlink:href="#BitstreamVeraSans-Roman-20"/>
     <use x="483.203125" xlink:href="#BitstreamVeraSans-Roman-67"/>
     <use x="546.6796875" xlink:href="#BitstreamVeraSans-Roman-65"/>
     <use x="608.203125" xlink:href="#BitstreamVeraSans-Roman-6e"/>
     <use x="671.58203125" xlink:href="#BitstreamVeraSans-Roman-65"/>
     <use x="733.10546875" xlink:href="#BitstreamVeraSans-Roman-72"/>
     <use x="774.21875" xlink:href="#BitstreamVeraSans-Roman-61"/>
     <use x="835.498046875" xlink:href="#BitstreamVeraSans-Roman-74"/>
     <use x="874.70703125" xlink:href="#BitstreamVeraSans-Roman-65"/>
     <use x="936.23046875" xlink:href="#BitstreamVeraSans-Roman-64"/>
     <use x="999.70703125" xlink:href="#BitstreamVeraSans-Roman-3a"/>
     <use x="1033.3984375" xlink:href="#BitstreamVeraSans-Roman-20"/>
     <use x="1065.18554688" xlink:href="#BitstreamVeraSans-Roman-30"/>
     <use x="1128.80859375" xlink:href="#BitstreamVeraSans-Roman-38"/>
     <use x="1192.43164062" xlink:href="#BitstreamVeraSans-Roman-31"/>
     <use x="1256.0546875" xlink:href="#BitstreamVeraSans-Roman-39"/>
     <use x="1319.67773438" xlink:href="#BitstreamVeraSans-Roman-31"/>
     <use x="1383.30078125" xlink:href="#BitstreamVeraSans-Roman-37"/>
     <use x="1446.92382812" xlink:href="#BitstreamVeraSans-Roman-20"/>
     <use x="1478.7109375" xlink:href="#BitstreamVeraSans-Roman-31"/>
     <use x="1542.33398438" xlink:href="#BitstreamVeraSans-Roman-36"/>
     <use x="1605.95703125" xlink:href="#BitstreamVeraSans-Roman-33"/>
     <use x="1669.58007812" xlink:href="#BitstreamVeraSans-Roman-32"/>
     <use x="1733.203125" xlink:href="#BitstreamVeraSans-Roman-33"/>
     <use x="1796.82617188" xlink:href="#BitstreamVeraSans-Roman-32"/>
     <use x="1860.44921875" xlink:href="#BitstreamVeraSans-Roman-20"/>
    </g>
    <!-- ../sounds/ttls u3.wav - from 0.9300s to 1.0230s  -->
    <defs>
     <path d="M 37.109375 75.984375 
L 37.109375 68.5 
L 28.515625 68.5 
Q 23.6875 68.5 21.796875 66.546875 
Q 19.921875 64.59375 19.921875 59.515625 
L 19.921875 54.6875 
L 34.71875 54.6875 
L 34.71875 47.703125 
L 19.921875 47.703125 
L 19.921875 0 
L 10.890625 0 
L 10.890625 47.703125 
L 2.296875 47.703125 
L 2.296875 54.6875 
L 10.890625 54.6875 
L 10.890625 58.5 
Q 10.890625 67.625 15.140625 71.796875 
Q 19.390625 75.984375 28.609375 75.984375 
z
" id="BitstreamVeraSans-Roman-66"/>
     <path d="M 30.609375 48.390625 
Q 23.390625 48.390625 19.1875 42.75 
Q 14.984375 37.109375 14.984375 27.296875 
Q 14.984375 17.484375 19.15625 11.84375 
Q 23.34375 6.203125 30.609375 6.203125 
Q 37.796875 6.203125 41.984375 11.859375 
Q 46.1875 17.53125 46.1875 27.296875 
Q 46.1875 37.015625 41.984375 42.703125 
Q 37.796875 48.390625 30.609375 48.390625 
M 30.609375 56 
Q 42.328125 56 49.015625 48.375 
Q 55.71875 40.765625 55.71875 27.296875 
Q 55.71875 13.875 49.015625 6.21875 
Q 42.328125 -1.421875 30.609375 -1.421875 
Q 18.84375 -1.421875 12.171875 6.21875 
Q 5.515625 13.875 5.515625 27.296875 
Q 5.515625 40.765625 12.171875 48.375 
Q 18.84375 56 30.609375 56 
" id="BitstreamVeraSans-Roman-6f"/>
     <path d="M 9.421875 75.984375 
L 18.40625 75.984375 
L 18.40625 0 
L 9.421875 0 
z
" id="BitstreamVeraSans-Roman-6c"/>
     <path d="M 4.890625 31.390625 
L 31.203125 31.390625 
L 31.203125 23.390625 
L 4.890625 23.390625 
z
" id="BitstreamVeraSans-Roman-2d"/>
     <path d="M 25.390625 72.90625 
L 33.6875 72.90625 
L 8.296875 -9.28125 
L 0 -9.28125 
z
" id="BitstreamVeraSans-Roman-2f"/>
     <path d="M 2.984375 54.6875 
L 12.5 54.6875 
L 29.59375 8.796875 
L 46.6875 54.6875 
L 56.203125 54.6875 
L 35.6875 0 
L 23.484375 0 
z
" id="BitstreamVeraSans-Roman-76"/>
     <path d="M 4.203125 54.6875 
L 13.1875 54.6875 
L 24.421875 12.015625 
L 35.59375 54.6875 
L 46.1875 54.6875 
L 57.421875 12.015625 
L 68.609375 54.6875 
L 77.59375 54.6875 
L 63.28125 0 
L 52.6875 0 
L 40.921875 44.828125 
L 29.109375 0 
L 18.5 0 
z
" id="BitstreamVeraSans-Roman-77"/>
     <path d="M 8.5 21.578125 
L 8.5 54.6875 
L 17.484375 54.6875 
L 17.484375 21.921875 
Q 17.484375 14.15625 20.5 10.265625 
Q 23.53125 6.390625 29.59375 6.390625 
Q 36.859375 6.390625 41.078125 11.03125 
Q 45.3125 15.671875 45.3125 23.6875 
L 45.3125 54.6875 
L 54.296875 54.6875 
L 54.296875 0 
L 45.3125 0 
L 45.3125 8.40625 
Q 42.046875 3.421875 37.71875 1 
Q 33.40625 -1.421875 27.6875 -1.421875 
Q 18.265625 -1.421875 13.375 4.4375 
Q 8.5 10.296875 8.5 21.578125 
" id="BitstreamVeraSans-Roman-75"/>
     <path d="M 44.28125 53.078125 
L 44.28125 44.578125 
Q 40.484375 46.53125 36.375 47.5 
Q 32.28125 48.484375 27.875 48.484375 
Q 21.1875 48.484375 17.84375 46.4375 
Q 14.5 44.390625 14.5 40.28125 
Q 14.5 37.15625 16.890625 35.375 
Q 19.28125 33.59375 26.515625 31.984375 
L 29.59375 31.296875 
Q 39.15625 29.25 43.1875 25.515625 
Q 47.21875 21.78125 47.21875 15.09375 
Q 47.21875 7.46875 41.1875 3.015625 
Q 35.15625 -1.421875 24.609375 -1.421875 
Q 20.21875 -1.421875 15.453125 -0.5625 
Q 10.6875 0.296875 5.421875 2 
L 5.421875 11.28125 
Q 10.40625 8.6875 15.234375 7.390625 
Q 20.0625 6.109375 24.8125 6.109375 
Q 31.15625 6.109375 34.5625 8.28125 
Q 37.984375 10.453125 37.984375 14.40625 
Q 37.984375 18.0625 35.515625 20.015625 
Q 33.0625 21.96875 24.703125 23.78125 
L 21.578125 24.515625 
Q 13.234375 26.265625 9.515625 29.90625 
Q 5.8125 33.546875 5.8125 39.890625 
Q 5.8125 47.609375 11.28125 51.796875 
Q 16.75 56 26.8125 56 
Q 31.78125 56 36.171875 55.265625 
Q 40.578125 54.546875 44.28125 53.078125 
" id="BitstreamVeraSans-Roman-73"/>
    </defs>
    <g style="fill:#008000;" transform="translate(652.907825 35.734475)scale(0.08 -0.08)">
     <use xlink:href="#BitstreamVeraSans-Roman-2e"/>
     <use x="31.787109375" xlink:href="#BitstreamVeraSans-Roman-2e"/>
     <use x="63.57421875" xlink:href="#BitstreamVeraSans-Roman-2f"/>
     <use x="97.265625" xlink:href="#BitstreamVeraSans-Roman-73"/>
     <use x="149.365234375" xlink:href="#BitstreamVeraSans-Roman-6f"/>
     <use x="210.546875" xlink:href="#BitstreamVeraSans-Roman-75"/>
     <use x="273.92578125" xlink:href="#BitstreamVeraSans-Roman-6e"/>
     <use x="337.3046875" xlink:href="#BitstreamVeraSans-Roman-64"/>
     <use x="400.78125" xlink:href="#BitstreamVeraSans-Roman-73"/>
     <use x="452.880859375" xlink:href="#BitstreamVeraSans-Roman-2f"/>
     <use x="486.572265625" xlink:href="#BitstreamVeraSans-Roman-74"/>
     <use x="525.78125" xlink:href="#BitstreamVeraSans-Roman-74"/>
     <use x="564.990234375" xlink:href="#BitstreamVeraSans-Roman-6c"/>
     <use x="592.7734375" xlink:href="#BitstreamVeraSans-Roman-73"/>
     <use x="644.873046875" xlink:href="#BitstreamVeraSans-Roman-20"/>
     <use x="676.66015625" xlink:href="#BitstreamVeraSans-Roman-75"/>
     <use x="740.0390625" xlink:href="#BitstreamVeraSans-Roman-33"/>
     <use x="803.662109375" xlink:href="#BitstreamVeraSans-Roman-2e"/>
     <use x="835.44921875" xlink:href="#BitstreamVeraSans-Roman-77"/>
     <use x="917.236328125" xlink:href="#BitstreamVeraSans-Roman-61"/>
     <use x="978.515625" xlink:href="#BitstreamVeraSans-Roman-76"/>
     <use x="1037.6953125" xlink:href="#BitstreamVeraSans-Roman-20"/>
     <use x="1069.48242188" xlink:href="#BitstreamVeraSans-Roman-2d"/>
     <use x="1105.56640625" xlink:href="#BitstreamVeraSans-Roman-20"/>
     <use x="1137.35351562" xlink:href="#BitstreamVeraSans-Roman-66"/>
     <use x="1172.55859375" xlink:href="#BitstreamVeraSans-Roman-72"/>
     <use x="1213.640625" xlink:href="#BitstreamVeraSans-Roman-6f"/>
     <use x="1274.82226562" xlink:href="#BitstreamVeraSans-Roman-6d"/>
     <use x="1372.234375" xlink:href="#BitstreamVeraSans-Roman-20"/>
     <use x="1404.02148438" xlink:href="#BitstreamVeraSans-Roman-30"/>
     <use x="1467.64453125" xlink:href="#BitstreamVeraSans-Roman-2e"/>
     <use x="1499.43164062" xlink:href="#BitstreamVeraSans-Roman-39"/>
     <use x="1563.0546875" xlink:href="#BitstreamVeraSans-Roman-33"/>
     <use x="1626.67773438" xlink:href="#BitstreamVeraSans-Roman-30"/>
     <use x="1690.30078125" xlink:href="#BitstreamVeraSans-Roman-30"/>
     <use x="1753.92382812" xlink:href="#BitstreamVeraSans-Roman-73"/>
     <use x="1806.0234375" xlink:href="#BitstreamVeraSans-Roman-20"/>
     <use x="1837.81054688" xlink:href="#BitstreamVeraSans-Roman-74"/>
     <use x="1877.01953125" xlink:href="#BitstreamVeraSans-Roman-6f"/>
     <use x="1938.20117188" xlink:href="#BitstreamVeraSans-Roman-20"/>
     <use x="1969.98828125" xlink:href="#BitstreamVeraSans-Roman-31"/>
     <use x="2033.61132812" xlink:href="#BitstreamVeraSans-Roman-2e"/>
     <use x="2065.3984375" xlink:href="#BitstreamVeraSans-Roman-30"/>
     <use x="2129.02148438" xlink:href="#BitstreamVeraSans-Roman-32"/>
     <use x="2192.64453125" xlink:href="#BitstreamVeraSans-Roman-33"/>
     <use x="2256.26757812" xlink:href="#BitstreamVeraSans-Roman-30"/>
     <use x="2319.890625" xlink:href="#BitstreamVeraSans-Roman-73"/>
     <use x="2371.99023438" xlink:href="#BitstreamVeraSans-Roman-20"/>
    </g>
    <!--   -->
    <g style="fill:#008000;" transform="translate(842.659075 44.692725)scale(0.08 -0.08)">
     <use xlink:href="#BitstreamVeraSans-Roman-20"/>
    </g>
   </g>
  </g>
 </g>
 <defs>
  <clipPath id="pa409ee2ded">
   <rect height="384.53" width="805.28" x="47.974375" y="13.006875"/>
  </clipPath>
 </defs>
</svg>
