<?xml version="1.0" encoding="utf-8" standalone="no"?>
<!DOCTYPE svg PUBLIC "-//W3C//DTD SVG 1.1//EN"
  "http://www.w3.org/Graphics/SVG/1.1/DTD/svg11.dtd">
<!-- Created with matplotlib (http://matplotlib.org/) -->
<svg height="686pt" version="1.1" viewBox="0 0 819 686" width="819pt" xmlns="http://www.w3.org/2000/svg" xmlns:xlink="http://www.w3.org/1999/xlink">
 <defs>
  <style type="text/css">
*{stroke-linecap:butt;stroke-linejoin:round;stroke-miterlimit:100000;}
  </style>
 </defs>
 <g id="figure_1">
  <g id="patch_1">
   <path d="M 0 686.93 
L 819.68 686.93 
L 819.68 0 
L 0 0 
z
" style="fill:#ffffff;"/>
  </g>
  <g id="axes_1">
   <g id="patch_2">
    <path d="M 7.2 175.3325 
L 812.48 175.3325 
L 812.48 7.2 
L 7.2 7.2 
z
" style="fill:#ffffff;"/>
   </g>
   <g id="line2d_1">
    <path clip-path="url(#p388589e9f0)" d="M 7.2 174.496917 
L 15.870129 174.65038 
L 24.540258 174.447299 
L 33.210387 174.176217 
L 41.880516 174.366733 
L 50.550645 174.215742 
L 59.220773 173.778341 
L 67.890902 173.174025 
L 76.561031 170.06179 
L 85.23116 173.931899 
L 93.901289 172.904492 
L 102.571418 174.627813 
L 111.241547 173.538011 
L 119.911676 174.393983 
L 128.581805 173.276386 
L 137.251934 173.562213 
L 145.922062 174.576398 
L 154.592191 172.541461 
L 163.26232 172.904751 
L 171.932449 173.131381 
L 180.602578 170.77602 
L 189.272707 169.809307 
L 197.942836 166.485038 
L 206.612965 158.076528 
L 215.283094 59.803794 
L 223.953223 146.528962 
L 232.623352 158.841985 
L 241.29348 164.020056 
L 249.963609 165.865121 
L 258.633738 167.839613 
L 267.303867 169.474203 
L 275.973996 169.623096 
L 284.644125 169.911401 
L 293.314254 170.427505 
L 301.984383 170.666089 
L 310.654512 170.449608 
L 319.324641 170.564324 
L 327.99477 170.331014 
L 336.664898 170.280072 
L 345.335027 170.121923 
L 354.005156 169.404949 
L 362.675285 168.429143 
L 371.345414 169.122778 
L 380.015543 167.758623 
L 388.685672 167.383406 
L 397.355801 166.288291 
L 406.02593 163.294329 
L 414.696059 153.475758 
L 423.366187 124.486025 
L 432.036316 117.319233 
L 440.706445 158.851191 
L 449.376574 167.625235 
L 458.046703 169.391892 
L 466.716832 171.210875 
L 475.386961 169.446499 
L 484.05709 171.76435 
L 492.727219 171.728726 
L 501.397348 172.245634 
L 510.067477 172.213844 
L 518.737605 172.264775 
L 527.407734 172.053169 
L 536.077863 171.985162 
L 544.747992 171.201906 
L 553.418121 170.924932 
L 562.08825 170.484156 
L 570.758379 170.032052 
L 579.428508 169.420915 
L 588.098637 167.864859 
L 596.768766 167.504532 
L 605.438895 164.738919 
L 614.109023 160.735367 
L 622.779152 152.953915 
L 631.449281 122.032689 
L 640.11941 13.986453 
L 648.789539 136.769333 
L 657.459668 156.784716 
L 666.129797 162.883025 
L 674.799926 166.319028 
L 683.470055 168.507589 
L 692.140184 168.906621 
L 700.810313 169.742993 
L 709.480441 170.503751 
L 718.15057 170.423288 
L 726.820699 171.484518 
L 735.490828 171.460666 
L 744.160957 171.999839 
L 752.831086 172.095423 
L 761.501215 172.463666 
L 770.171344 172.454471 
L 778.841473 172.428353 
L 787.511602 172.704195 
L 796.18173 172.258097 
L 804.851859 173.212903 
L 813.521988 172.334818 
" style="fill:none;stroke:#bf00bf;stroke-linecap:square;stroke-width:2.0;"/>
   </g>
   <g id="patch_3">
    <path d="M 7.2 7.2 
L 812.48 7.2 
" style="fill:none;stroke:#000000;stroke-linecap:square;stroke-linejoin:miter;"/>
   </g>
   <g id="patch_4">
    <path d="M 812.48 175.3325 
L 812.48 7.2 
" style="fill:none;stroke:#000000;stroke-linecap:square;stroke-linejoin:miter;"/>
   </g>
   <g id="patch_5">
    <path d="M 7.2 175.3325 
L 812.48 175.3325 
" style="fill:none;stroke:#000000;stroke-linecap:square;stroke-linejoin:miter;"/>
   </g>
   <g id="patch_6">
    <path d="M 7.2 175.3325 
L 7.2 7.2 
" style="fill:none;stroke:#000000;stroke-linecap:square;stroke-linejoin:miter;"/>
   </g>
   <g id="matplotlib.axis_1"/>
   <g id="matplotlib.axis_2"/>
  </g>
  <g id="axes_2">
   <g id="patch_7">
    <path d="M 7.2 343.465 
L 812.48 343.465 
L 812.48 175.3325 
L 7.2 175.3325 
z
" style="fill:#ffffff;"/>
   </g>
   <g id="line2d_2">
    <path clip-path="url(#pc2a202a89e)" d="M 7.2 342.706149 
L 15.870129 342.444258 
L 24.540258 342.423737 
L 33.210387 341.608683 
L 41.880516 340.129345 
L 50.550645 341.898652 
L 59.220773 342.098497 
L 67.890902 341.5518 
L 76.561031 341.691429 
L 85.23116 341.150566 
L 93.901289 338.425163 
L 102.571418 330.413283 
L 111.241547 271.298878 
L 119.911676 329.563521 
L 128.581805 334.984867 
L 137.251934 337.68115 
L 145.922062 338.301953 
L 154.592191 338.690349 
L 163.26232 338.580169 
L 171.932449 338.333497 
L 180.602578 337.049546 
L 189.272707 336.5732 
L 197.942836 334.968348 
L 206.612965 326.517544 
L 215.283094 289.035129 
L 223.953223 331.370713 
L 232.623352 338.433884 
L 241.29348 338.737925 
L 249.963609 340.11968 
L 258.633738 340.37181 
L 267.303867 340.151666 
L 275.973996 339.195919 
L 284.644125 338.390604 
L 293.314254 336.775387 
L 301.984383 334.254226 
L 310.654512 324.977141 
L 319.324641 236.142071 
L 327.99477 314.909524 
L 336.664898 332.733527 
L 345.335027 336.839605 
L 354.005156 338.255872 
L 362.675285 339.086403 
L 371.345414 339.862753 
L 380.015543 340.412045 
L 388.685672 340.573912 
L 397.355801 340.613646 
L 406.02593 340.90636 
L 414.696059 339.48847 
L 423.366187 307.918722 
L 432.036316 335.316033 
L 440.706445 340.573391 
L 449.376574 341.687109 
L 458.046703 342.20473 
L 466.716832 342.380387 
L 475.386961 342.660811 
L 484.05709 342.793681 
L 492.727219 343.0074 
L 501.397348 343.135246 
L 510.067477 342.580233 
L 518.737605 341.234493 
L 527.407734 334.97387 
L 536.077863 324.173984 
L 544.747992 338.843136 
L 553.418121 340.531571 
L 562.08825 340.85387 
L 570.758379 341.091752 
L 579.428508 341.221325 
L 588.098637 341.277411 
L 596.768766 341.072667 
L 605.438895 340.900029 
L 614.109023 340.603189 
L 622.779152 339.341572 
L 631.449281 333.773538 
L 640.11941 319.600418 
L 648.789539 338.102982 
L 657.459668 340.807586 
L 666.129797 342.535523 
L 674.799926 342.483335 
L 683.470055 342.588398 
L 692.140184 342.697715 
L 700.810313 342.933788 
L 709.480441 342.975151 
L 718.15057 343.032083 
L 726.820699 343.050866 
L 735.490828 343.165411 
L 744.160957 341.033373 
L 752.831086 342.793742 
L 761.501215 343.259218 
L 770.171344 343.28362 
L 778.841473 343.309595 
L 787.511602 343.261621 
L 796.18173 343.291846 
L 804.851859 343.320683 
L 813.521988 343.319164 
" style="fill:none;stroke:#bf00bf;stroke-linecap:square;stroke-width:2.0;"/>
   </g>
   <g id="patch_8">
    <path d="M 7.2 175.3325 
L 812.48 175.3325 
" style="fill:none;stroke:#000000;stroke-linecap:square;stroke-linejoin:miter;"/>
   </g>
   <g id="patch_9">
    <path d="M 812.48 343.465 
L 812.48 175.3325 
" style="fill:none;stroke:#000000;stroke-linecap:square;stroke-linejoin:miter;"/>
   </g>
   <g id="patch_10">
    <path d="M 7.2 343.465 
L 812.48 343.465 
" style="fill:none;stroke:#000000;stroke-linecap:square;stroke-linejoin:miter;"/>
   </g>
   <g id="patch_11">
    <path d="M 7.2 343.465 
L 7.2 175.3325 
" style="fill:none;stroke:#000000;stroke-linecap:square;stroke-linejoin:miter;"/>
   </g>
   <g id="matplotlib.axis_3"/>
   <g id="matplotlib.axis_4"/>
  </g>
  <g id="axes_3">
   <g id="patch_12">
    <path d="M 7.2 511.5975 
L 812.48 511.5975 
L 812.48 343.465 
L 7.2 343.465 
z
" style="fill:#ffffff;"/>
   </g>
   <g id="line2d_3">
    <path clip-path="url(#pc081099125)" d="M 7.2 510.796532 
L 15.870129 510.517897 
L 24.540258 508.603052 
L 33.210387 510.086401 
L 41.880516 510.001127 
L 50.550645 509.825024 
L 59.220773 508.535717 
L 67.890902 501.055291 
L 76.561031 457.989914 
L 85.23116 502.173263 
L 93.901289 505.934567 
L 102.571418 506.779401 
L 111.241547 506.656803 
L 119.911676 505.583672 
L 128.581805 504.353269 
L 137.251934 497.28446 
L 145.922062 469.81715 
L 154.592191 505.674334 
L 163.26232 507.244858 
L 171.932449 508.506418 
L 180.602578 508.011746 
L 189.272707 506.74538 
L 197.942836 504.528435 
L 206.612965 495.741067 
L 215.283094 427.194492 
L 223.953223 498.26059 
L 232.623352 505.317401 
L 241.29348 507.068852 
L 249.963609 508.116976 
L 258.633738 508.71383 
L 267.303867 508.990065 
L 275.973996 507.947253 
L 284.644125 484.295254 
L 293.314254 507.841844 
L 301.984383 509.963637 
L 310.654512 510.482847 
L 319.324641 510.820752 
L 327.99477 511.08551 
L 336.664898 511.10236 
L 345.335027 509.795955 
L 354.005156 495.778331 
L 362.675285 505.813996 
L 371.345414 508.709927 
L 380.015543 509.206535 
L 388.685672 509.382152 
L 397.355801 509.263784 
L 406.02593 508.990398 
L 414.696059 507.837795 
L 423.366187 494.426435 
L 432.036316 502.823191 
L 440.706445 509.49793 
L 449.376574 510.651366 
L 458.046703 510.758995 
L 466.716832 510.985939 
L 475.386961 511.126886 
L 484.05709 511.176847 
L 492.727219 510.954754 
L 501.397348 509.97193 
L 510.067477 511.413384 
L 518.737605 511.419904 
L 527.407734 511.406269 
L 536.077863 511.441498 
L 544.747992 511.459144 
L 553.418121 511.456856 
L 562.08825 511.46262 
L 570.758379 511.453938 
L 579.428508 511.458917 
L 588.098637 511.428624 
L 596.768766 511.472122 
L 605.438895 511.443644 
L 614.109023 511.428475 
L 622.779152 511.43496 
L 631.449281 511.419039 
L 640.11941 510.994206 
L 648.789539 511.381364 
L 657.459668 511.541581 
L 666.129797 511.511309 
L 674.799926 511.502629 
L 683.470055 511.488075 
L 692.140184 511.505711 
L 700.810313 511.49502 
L 709.480441 511.457891 
L 718.15057 511.5289 
L 726.820699 511.491605 
L 735.490828 511.491104 
L 744.160957 511.500959 
L 752.831086 511.490299 
L 761.501215 511.448446 
L 770.171344 511.341977 
L 778.841473 510.580951 
L 787.511602 511.435311 
L 796.18173 511.358933 
L 804.851859 511.496409 
L 813.521988 511.509967 
" style="fill:none;stroke:#bf00bf;stroke-linecap:square;stroke-width:2.0;"/>
   </g>
   <g id="patch_13">
    <path d="M 7.2 343.465 
L 812.48 343.465 
" style="fill:none;stroke:#000000;stroke-linecap:square;stroke-linejoin:miter;"/>
   </g>
   <g id="patch_14">
    <path d="M 812.48 511.5975 
L 812.48 343.465 
" style="fill:none;stroke:#000000;stroke-linecap:square;stroke-linejoin:miter;"/>
   </g>
   <g id="patch_15">
    <path d="M 7.2 511.5975 
L 812.48 511.5975 
" style="fill:none;stroke:#000000;stroke-linecap:square;stroke-linejoin:miter;"/>
   </g>
   <g id="patch_16">
    <path d="M 7.2 511.5975 
L 7.2 343.465 
" style="fill:none;stroke:#000000;stroke-linecap:square;stroke-linejoin:miter;"/>
   </g>
   <g id="matplotlib.axis_5"/>
   <g id="matplotlib.axis_6"/>
  </g>
  <g id="axes_4">
   <g id="patch_17">
    <path d="M 7.2 679.73 
L 812.48 679.73 
L 812.48 511.5975 
L 7.2 511.5975 
z
" style="fill:#ffffff;"/>
   </g>
   <g id="line2d_4">
    <path clip-path="url(#p357b1f1ad3)" d="M 7.2 678.840203 
L 15.870129 678.28121 
L 24.540258 677.278998 
L 33.210387 678.090149 
L 41.880516 677.685998 
L 50.550645 670.684223 
L 59.220773 636.696199 
L 67.890902 672.598008 
L 76.561031 674.761151 
L 85.23116 674.721833 
L 93.901289 673.076373 
L 102.571418 667.007946 
L 111.241547 646.467921 
L 119.911676 674.850904 
L 128.581805 676.510745 
L 137.251934 675.938792 
L 145.922062 673.847996 
L 154.592191 665.880683 
L 163.26232 611.790798 
L 171.932449 671.051566 
L 180.602578 674.936138 
L 189.272707 676.402399 
L 197.942836 676.858779 
L 206.612965 676.462415 
L 215.283094 657.882377 
L 223.953223 677.39525 
L 232.623352 678.557558 
L 241.29348 678.992246 
L 249.963609 679.336323 
L 258.633738 678.172363 
L 267.303867 665.838927 
L 275.973996 675.952354 
L 284.644125 677.237811 
L 293.314254 677.514368 
L 301.984383 677.251348 
L 310.654512 676.23738 
L 319.324641 662.951978 
L 327.99477 675.720284 
L 336.664898 678.774429 
L 345.335027 678.908057 
L 354.005156 679.219469 
L 362.675285 679.306474 
L 371.345414 678.364392 
L 380.015543 679.29148 
L 388.685672 679.561607 
L 397.355801 679.541734 
L 406.02593 679.584923 
L 414.696059 679.593668 
L 423.366187 679.599512 
L 432.036316 679.587833 
L 440.706445 679.563229 
L 449.376574 679.598309 
L 458.046703 679.564502 
L 466.716832 679.56909 
L 475.386961 679.451532 
L 484.05709 679.283355 
L 492.727219 679.664755 
L 501.397348 679.643986 
L 510.067477 679.628516 
L 518.737605 679.630791 
L 527.407734 679.612519 
L 536.077863 679.621301 
L 544.747992 679.643741 
L 553.418121 679.6229 
L 562.08825 679.633992 
L 570.758379 679.588715 
L 579.428508 679.427356 
L 588.098637 678.968168 
L 596.768766 679.539855 
L 605.438895 679.63238 
L 614.109023 679.631202 
L 622.779152 679.658434 
L 631.449281 679.640302 
L 640.11941 679.664662 
L 648.789539 679.66248 
L 657.459668 679.664415 
L 666.129797 679.66643 
L 674.799926 679.663421 
L 683.470055 679.662399 
L 692.140184 679.669418 
L 700.810313 679.677916 
L 709.480441 679.668565 
L 718.15057 679.677712 
L 726.820699 679.661937 
L 735.490828 679.666974 
L 744.160957 679.673655 
L 752.831086 679.681598 
L 761.501215 679.685052 
L 770.171344 679.684371 
L 778.841473 679.68096 
L 787.511602 679.696295 
L 796.18173 679.683937 
L 804.851859 679.67748 
L 813.521988 679.67807 
" style="fill:none;stroke:#bf00bf;stroke-linecap:square;stroke-width:2.0;"/>
   </g>
   <g id="patch_18">
    <path d="M 7.2 511.5975 
L 812.48 511.5975 
" style="fill:none;stroke:#000000;stroke-linecap:square;stroke-linejoin:miter;"/>
   </g>
   <g id="patch_19">
    <path d="M 812.48 679.73 
L 812.48 511.5975 
" style="fill:none;stroke:#000000;stroke-linecap:square;stroke-linejoin:miter;"/>
   </g>
   <g id="patch_20">
    <path d="M 7.2 679.73 
L 812.48 679.73 
" style="fill:none;stroke:#000000;stroke-linecap:square;stroke-linejoin:miter;"/>
   </g>
   <g id="patch_21">
    <path d="M 7.2 679.73 
L 7.2 511.5975 
" style="fill:none;stroke:#000000;stroke-linecap:square;stroke-linejoin:miter;"/>
   </g>
   <g id="matplotlib.axis_7"/>
   <g id="matplotlib.axis_8"/>
  </g>
 </g>
 <defs>
  <clipPath id="p388589e9f0">
   <rect height="168.1325" width="805.28" x="7.2" y="7.2"/>
  </clipPath>
  <clipPath id="pc2a202a89e">
   <rect height="168.1325" width="805.28" x="7.2" y="175.3325"/>
  </clipPath>
  <clipPath id="pc081099125">
   <rect height="168.1325" width="805.28" x="7.2" y="343.465"/>
  </clipPath>
  <clipPath id="p357b1f1ad3">
   <rect height="168.1325" width="805.28" x="7.2" y="511.5975"/>
  </clipPath>
 </defs>
</svg>
